<svg width="664" height="403" viewBox="0 0 664 403" fill="none" xmlns="http://www.w3.org/2000/svg">
<g clip-path="url(#clip0)">
<path d="M591.28 150.717C576.897 150.717 562.837 146.297 550.878 138.016C538.919 129.736 529.599 117.967 524.095 104.197C518.591 90.4267 517.151 75.2747 519.956 60.6566C522.762 46.0385 529.688 32.611 539.859 22.0719C550.029 11.5329 562.986 4.35571 577.093 1.44799C591.199 -1.45972 605.821 0.0326227 619.109 5.73631C632.396 11.44 643.754 21.0989 651.744 33.4915C659.735 45.8841 664 60.4538 664 75.3583C663.978 95.3376 656.31 114.492 642.677 128.62C629.044 142.747 610.56 150.694 591.28 150.717ZM591.28 1.17748C577.122 1.17748 563.282 5.52811 551.51 13.6792C539.738 21.8303 530.562 33.4158 525.144 46.9705C519.726 60.5253 518.309 75.4406 521.071 89.8303C523.833 104.22 530.651 117.438 540.662 127.812C550.673 138.186 563.428 145.251 577.314 148.114C591.2 150.976 605.593 149.507 618.674 143.892C631.754 138.278 642.934 128.77 650.8 116.571C658.665 104.372 662.864 90.0299 662.864 75.3583C662.842 55.6912 655.294 36.8359 641.874 22.9291C628.454 9.02233 610.258 1.19973 591.28 1.17748Z" fill="#3F3D56"/>
<path d="M591.523 113.414C611.69 113.414 628.039 96.4729 628.039 75.5746C628.039 54.6762 611.69 37.7347 591.523 37.7347C571.357 37.7347 555.008 54.6762 555.008 75.5746C555.008 96.4729 571.357 113.414 591.523 113.414Z" fill="#F2F2F2"/>
<path d="M593.933 75.6624H36.4987V365.865H593.933V75.6624Z" fill="#3F3D56"/>
<path opacity="0.1" d="M402.149 159.56H193.111V308.1H402.149V159.56Z" fill="black"/>
<path d="M641.501 37.6467C649.633 37.6467 656.225 30.8155 656.225 22.3887C656.225 13.962 649.633 7.13071 641.501 7.13071C633.37 7.13071 626.777 13.962 626.777 22.3887C626.777 30.8155 633.37 37.6467 641.501 37.6467Z" fill="#6C63FF"/>
<path d="M53.089 93.5422C56.754 93.5422 59.7251 90.4633 59.7251 86.6653C59.7251 82.8674 56.754 79.7885 53.089 79.7885C49.4239 79.7885 46.4529 82.8674 46.4529 86.6653C46.4529 90.4633 49.4239 93.5422 53.089 93.5422Z" fill="#6C63FF"/>
<path d="M73.6609 93.5422C77.326 93.5422 80.2971 90.4633 80.2971 86.6653C80.2971 82.8674 77.326 79.7885 73.6609 79.7885C69.9959 79.7885 67.0248 82.8674 67.0248 86.6653C67.0248 90.4633 69.9959 93.5422 73.6609 93.5422Z" fill="#6C63FF"/>
<path d="M94.2329 93.5422C97.898 93.5422 100.869 90.4633 100.869 86.6653C100.869 82.8674 97.898 79.7885 94.2329 79.7885C90.5679 79.7885 87.5968 82.8674 87.5968 86.6653C87.5968 90.4633 90.5679 93.5422 94.2329 93.5422Z" fill="#6C63FF"/>
<path d="M114.141 183.629H100.869V197.382H114.141V183.629Z" fill="#6C63FF"/>
<path d="M518.281 303.286H505.009V317.039H518.281V303.286Z" fill="white"/>
<path d="M471.486 207.654L461.168 216.305L469.516 226.997L479.834 218.346L471.486 207.654Z" fill="#6C63FF"/>
<path d="M424.712 394.748H7.96344V162.311H9.29059V393.373H424.712V394.748Z" fill="#3F3D56"/>
<path d="M432.675 403C430.969 403 429.301 402.476 427.882 401.493C426.464 400.511 425.358 399.115 424.705 397.481C424.052 395.848 423.881 394.05 424.214 392.316C424.547 390.582 425.368 388.989 426.575 387.739C427.781 386.488 429.319 385.637 430.992 385.292C432.666 384.947 434.4 385.124 435.977 385.801C437.553 386.477 438.9 387.623 439.848 389.093C440.796 390.563 441.302 392.292 441.302 394.06C441.299 396.43 440.39 398.703 438.772 400.378C437.155 402.054 434.962 402.997 432.675 403ZM432.675 386.496C431.231 386.496 429.82 386.939 428.62 387.77C427.419 388.602 426.484 389.783 425.931 391.165C425.379 392.547 425.234 394.068 425.516 395.536C425.797 397.003 426.493 398.351 427.513 399.409C428.534 400.467 429.835 401.187 431.251 401.479C432.667 401.771 434.135 401.621 435.469 401.049C436.802 400.476 437.943 399.507 438.745 398.263C439.547 397.019 439.975 395.556 439.975 394.06C439.973 392.055 439.203 390.132 437.834 388.714C436.466 387.296 434.61 386.498 432.675 386.496Z" fill="#3F3D56"/>
<path d="M8.62695 162.998C6.9207 162.998 5.25276 162.474 3.83407 161.492C2.41537 160.509 1.30963 159.113 0.656677 157.48C0.00372275 155.846 -0.16712 154.048 0.165753 152.314C0.498626 150.58 1.32026 148.987 2.52677 147.737C3.73327 146.487 5.27045 145.635 6.94391 145.29C8.61738 144.945 10.352 145.122 11.9283 145.799C13.5047 146.476 14.8521 147.621 15.8 149.092C16.7479 150.562 17.2539 152.29 17.2539 154.058C17.2514 156.429 16.3417 158.701 14.7243 160.377C13.107 162.053 10.9142 162.996 8.62695 162.998ZM8.62695 146.494C7.1832 146.494 5.77187 146.938 4.57143 147.769C3.371 148.6 2.43537 149.781 1.88288 151.164C1.33038 152.546 1.18582 154.067 1.46748 155.534C1.74914 157.002 2.44437 158.349 3.46526 159.407C4.48615 160.465 5.78683 161.186 7.20284 161.478C8.61885 161.769 10.0866 161.62 11.4204 161.047C12.7543 160.475 13.8944 159.505 14.6965 158.261C15.4986 157.017 15.9267 155.555 15.9267 154.058C15.9245 152.053 15.1547 150.13 13.7862 148.712C12.4177 147.294 10.5623 146.496 8.62695 146.494Z" fill="#3F3D56"/>
<path d="M133.386 348.673L127.46 365.865H114.141V348.329C115.123 326.33 127.035 315.987 127.407 315.671C118.455 324.618 119.45 355.55 119.45 355.55C125.423 328.73 130.732 328.042 130.732 328.042C127.52 333.042 125.861 355.784 125.761 357.2C126.159 352.421 133.386 348.673 133.386 348.673Z" fill="#F2F2F2"/>
<path d="M545.489 351.011V365.865H535.25L530.226 351.279C530.226 351.279 535.953 354.25 536.272 358.039C536.192 356.87 534.878 338.88 532.33 334.919C532.33 334.919 536.544 335.463 541.282 356.733C541.282 356.733 542.065 332.203 534.971 325.106C535.269 325.36 544.713 333.558 545.489 351.011Z" fill="#F2F2F2"/>
<path d="M366.281 308.097H350.14L350.032 306.725L348.856 291.435V291.43L347.635 275.534L355.083 242.747L361.412 249.305V280.55C361.412 280.55 365.133 286.337 364.389 287.879C363.645 289.422 362.901 289.422 363.645 290.576C364.389 291.736 365.133 292.507 364.389 293.278C364.027 293.779 363.831 294.389 363.831 295.015C363.831 295.641 364.027 296.251 364.389 296.752C365.133 297.523 366.622 298.677 365.503 299.837C364.389 300.991 362.901 300.219 364.389 304.464C364.662 305.249 365.004 306.006 365.412 306.725C365.677 307.198 365.967 307.656 366.281 308.097Z" fill="#D0CDE1"/>
<path d="M316.555 202.435L314.322 225.58L337.028 229.052L338.703 215.744L340.378 202.435H316.555Z" fill="#FFB9B9"/>
<path opacity="0.1" d="M316.555 202.435L314.322 225.58L337.028 229.052L338.703 215.744L340.378 202.435H316.555Z" fill="black"/>
<path d="M329.025 209.957C338.893 209.957 346.892 201.668 346.892 191.442C346.892 181.216 338.893 172.926 329.025 172.926C319.157 172.926 311.157 181.216 311.157 191.442C311.157 201.668 319.157 209.957 329.025 209.957Z" fill="#FFB9B9"/>
<path d="M283.874 308.097C283.811 307.961 283.743 307.82 283.675 307.667C283.544 307.378 283.402 307.066 283.249 306.725C282.26 304.441 281.05 301.191 281.749 300.219C282.868 298.677 283.238 297.134 282.493 296.363C281.749 295.592 279.516 297.134 281.749 295.203C283.982 293.278 284.726 294.432 283.982 292.118C283.238 289.805 281.749 290.964 283.238 289.805C284.726 288.651 285.845 289.033 285.101 287.879C284.357 286.72 282.868 286.72 284.357 285.948C285.845 285.177 286.964 285.948 286.59 284.017C286.215 282.092 285.845 282.863 286.59 282.092C286.783 281.892 287.459 279.949 288.362 277.176C290.89 269.34 295.151 254.887 295.151 254.316C295.151 253.544 289.197 229.247 289.197 229.247L286.59 227.699C286.59 227.699 275.051 235.8 271.33 253.933C267.603 272.06 265.001 276.693 265.001 276.693C265.001 276.693 261.279 277.465 263.881 280.161C266.489 282.863 266.489 282.475 264.256 284.017C262.024 285.56 260.535 282.475 262.024 285.56C263.512 288.651 265.37 287.879 263.881 289.805C262.393 291.736 259.791 291.736 261.279 293.278C262.768 294.821 259.791 298.294 261.649 299.837C263.512 301.379 264.256 301.762 264.256 304.464C264.257 305.221 264.316 305.977 264.432 306.725C264.496 307.187 264.588 307.646 264.705 308.097C264.79 308.456 264.876 308.727 264.932 308.897L283.874 308.097Z" fill="#D0CDE1"/>
<path d="M283.874 308.096H285.391L285.47 307.549L283.675 307.667L277.147 308.096L264.932 308.897L283.874 308.096Z" fill="#3F3D56"/>
<path d="M291.799 291.736L288.453 279.778L288.362 277.176L286.59 227.699L308.553 219.604L312.275 216.513C312.275 216.513 313.019 207.64 314.138 206.869C314.541 206.593 315.189 206.916 316.047 207.67C317.552 208.995 319.711 211.638 322.325 214.588C326.421 219.215 334.983 218.444 337.585 216.901C337.92 216.699 338.267 216.52 338.624 216.366C340.494 215.565 341.306 216.13 341.306 216.13C343.169 217.673 338.704 222.689 338.704 222.689C338.704 222.689 340.192 226.156 349.868 229.63C359.549 233.103 361.412 249.305 361.412 249.305C361.412 249.305 349.868 281.704 350.243 284.017C350.561 286.001 349.243 290.252 348.856 291.43V291.435C348.794 291.624 348.754 291.736 348.754 291.736L349.601 306.725L349.68 308.097H293.373C293.206 307.62 292.994 307.16 292.742 306.725C292.68 306.619 292.612 306.507 292.543 306.395C289.197 300.991 291.799 291.736 291.799 291.736Z" fill="#D0CDE1"/>
<path d="M311.033 193.814C311.033 193.814 309.178 190.93 309.892 187.824C310.318 186.06 310.486 184.24 310.391 182.425C310.391 182.425 311.89 177.396 313.388 174.586C314.887 171.776 314.173 170.593 318.883 169.705C323.593 168.818 321.667 162.458 334.084 169.336C334.503 169.942 335.085 170.406 335.759 170.669C336.432 170.932 337.165 170.983 337.866 170.815C340.435 170.297 341.363 173.995 341.363 173.995C341.363 173.995 343.075 172.959 343.718 174.438C344.36 175.917 348.94 173.551 348.94 183.534C348.94 193.518 343.728 202.435 343.728 202.435C343.728 202.435 344.11 185.642 335.618 183.941C327.126 182.24 317.991 177.285 315.779 183.645C314.585 187.215 312.992 190.627 311.033 193.814Z" fill="#2F2E41"/>
<path d="M343.914 197.807C344.839 197.807 345.589 196.77 345.589 195.492C345.589 194.214 344.839 193.178 343.914 193.178C342.989 193.178 342.239 194.214 342.239 195.492C342.239 196.77 342.989 197.807 343.914 197.807Z" fill="#FFB9B9"/>
<path d="M193.11 148.555V308.097H437.32V148.555H193.11ZM435.996 306.725H194.439V149.933H435.996V306.725Z" fill="white"/>
</g>
<defs>
<clipPath id="clip0">
<rect width="664" height="403" fill="white"/>
</clipPath>
</defs>
</svg>
