<svg width="517" height="364" viewBox="0 0 517 364" fill="none" xmlns="http://www.w3.org/2000/svg">
<path d="M503.5 68C503.5 104.769 474.58 134.5 439 134.5C403.42 134.5 374.5 104.769 374.5 68C374.5 31.2305 403.42 1.5 439 1.5C474.58 1.5 503.5 31.2305 503.5 68Z" stroke="#3F3D56" stroke-width="3"/>
<circle cx="492" cy="38" r="25" fill="#39374C"/>
<rect x="17" y="88" width="460" height="261" fill="#C4C4C4"/>
<rect x="471.181" y="96.6147" width="246.393" height="447.204" transform="rotate(90.4631 471.181 96.6147)" fill="#3F3D56"/>
<rect x="465" y="107" width="230.199" height="347.151" transform="rotate(90.4631 465 107)" fill="#39374D"/>
<path d="M269.712 315.287C274.847 311.651 270.327 293.069 266.048 286L259.839 289.535L240.533 291L242.844 305.188L225.071 318.317L208 315.287L215.406 337C220.178 336.158 231.006 334.273 236.141 333.465C242.559 332.455 263.294 319.832 269.712 315.287Z" fill="#E6A7A7"/>
<path d="M97.7885 317.5C92.5885 313.9 97.1666 295.5 101.5 288.5L107.788 292L128.288 301L125 307.5L143 320.5L160.288 317.5L152.788 339C147.955 338.167 136.988 336.3 131.788 335.5C125.288 334.5 104.289 322 97.7885 317.5Z" fill="#E6A7A7"/>
<path d="M266.5 292C252.236 290.726 239 306 237 302.5C235 299 225.748 273.666 224.218 273.775L224.967 281.991L225.717 290.207L227.215 306.638L227.862 313.726C227.862 313.726 230.159 317.807 229.33 319.525C228.609 321.016 228.787 323.803 228.846 324.512L228.861 324.68L231.33 350.743L135.297 349.743L137.297 338.212C137.297 338.212 138 335.243 137.03 333.701C136.06 332.159 137.297 324.68 137.297 324.68C137.297 324.68 136.03 326.243 136.03 324.68V319.525V313.726V273.775C136.03 273.775 127.86 309.245 123.291 306.638C118.723 304.031 102.281 294.077 96.1989 297.186C92.9164 298.865 96.8605 282.129 102.154 265.534C102.345 264.935 102.538 264.337 102.732 263.739C102.186 263.435 101.839 262.807 102.728 261.514C103.232 260.782 103.687 260.177 104.077 259.688C104.529 258.357 104.985 257.041 105.442 255.751C105.371 253.859 105.43 251.253 106.151 249.908C106.264 249.697 106.953 249.231 108.112 248.557C110.828 241.599 113.359 236.299 114.997 234.886C121.151 229.58 110.574 228.355 145.408 220.316C174.919 213.505 175.856 214.953 175.453 215.554C176.235 214.889 179.801 212.79 192.5 214.5C207.429 216.51 233 222.03 237 227C236.866 226.918 242.517 233.245 247.511 241.369C249.463 242.617 249.442 242.778 251.164 244.5C253.5 246.836 251.164 248 251.164 248C252.251 250.256 253.37 252.608 254.489 255C254.722 255.498 254.956 255.999 255.188 256.5C262.75 272.787 280.764 293.274 266.5 292Z" fill="#E2D5D5"/>
<path d="M167.697 227C164.647 217.376 167 197.595 167 197.595L194 195.5C198.16 212 199.399 215.015 198.197 227C196.995 238.985 170.747 236.624 167.697 227Z" fill="#E6A7A7"/>
<path d="M199.489 200.931C216.265 188.977 220.607 152.493 216 140.045C204.685 133.339 178.889 124.037 159.081 134.031C134.322 146.524 155.827 190.382 160 196.069C166.763 205.286 169.885 205.298 175.271 207.974C184.967 212.792 183.72 212.168 199.489 200.931Z" fill="#FFB9B9"/>
<path d="M173.121 147.105C168.783 147.105 151.815 147.368 144.585 151C142.941 140.509 142.991 143.5 144.585 129.895C144.935 126.905 148.2 121.421 150.5 119L173.121 122.895C182.816 125.719 204.374 131.368 213.05 131.368C221.726 131.368 221.594 141.86 220.444 147.105L218.5 157L213.05 153.763C201.548 151.544 177.459 147.105 173.121 147.105Z" fill="#4E4E4E"/>
<path d="M303.066 139.108C302.118 139.108 301.248 138.886 300.456 138.442C299.664 137.998 299.034 137.374 298.566 136.57C298.098 135.754 297.864 134.818 297.864 133.762C297.864 132.586 298.128 131.464 298.656 130.396C299.196 129.316 299.892 128.452 300.744 127.804C301.608 127.156 302.496 126.832 303.408 126.832C303.924 126.832 304.368 126.898 304.74 127.03C305.112 127.15 305.466 127.318 305.802 127.534C305.838 127.462 305.898 127.402 305.982 127.354C306.066 127.306 306.162 127.282 306.27 127.282C306.426 127.282 306.558 127.336 306.666 127.444C306.774 127.552 306.828 127.684 306.828 127.84V128.992C306.828 129.148 306.768 129.286 306.648 129.406C306.54 129.514 306.408 129.568 306.252 129.568C306.096 129.568 305.958 129.514 305.838 129.406C305.73 129.298 305.676 129.166 305.676 129.01V128.866C305.412 128.614 305.106 128.404 304.758 128.236C304.41 128.056 303.96 127.966 303.408 127.966C302.7 127.966 302.01 128.236 301.338 128.776C300.666 129.316 300.114 130.036 299.682 130.936C299.262 131.824 299.052 132.766 299.052 133.762C299.052 134.614 299.238 135.358 299.61 135.994C299.982 136.63 300.474 137.122 301.086 137.47C301.698 137.806 302.358 137.974 303.066 137.974C304.446 137.974 305.568 137.41 306.432 136.282C306.504 136.198 306.57 136.144 306.63 136.12C306.702 136.084 306.786 136.066 306.882 136.066C307.038 136.066 307.17 136.12 307.278 136.228C307.398 136.324 307.458 136.462 307.458 136.642C307.458 136.786 307.422 136.9 307.35 136.984C306.846 137.668 306.222 138.196 305.478 138.568C304.734 138.928 303.93 139.108 303.066 139.108ZM316.138 139.108C315.982 139.108 315.844 139.054 315.724 138.946C315.616 138.826 315.562 138.688 315.562 138.532V127.624C315.562 127.396 315.586 127.234 315.634 127.138C315.694 127.03 315.826 126.952 316.03 126.904C316.234 126.856 316.57 126.832 317.038 126.832C319.282 126.832 320.962 127.15 322.078 127.786C323.194 128.422 323.752 129.34 323.752 130.54C323.752 131.572 323.368 132.412 322.6 133.06C321.832 133.696 320.908 134.152 319.828 134.428C318.748 134.704 317.71 134.848 316.714 134.86V138.532C316.714 138.688 316.66 138.826 316.552 138.946C316.444 139.054 316.306 139.108 316.138 139.108ZM316.714 133.726C317.434 133.714 318.244 133.618 319.144 133.438C320.044 133.258 320.848 132.934 321.556 132.466C322.264 131.986 322.618 131.344 322.618 130.54C322.618 129.712 322.162 129.076 321.25 128.632C320.338 128.188 319.036 127.966 317.344 127.966C317.02 127.966 316.81 127.972 316.714 127.984V133.726ZM326.121 139.108C325.977 139.108 325.845 139.054 325.725 138.946C325.605 138.838 325.545 138.718 325.545 138.586V130.666C325.545 130.51 325.599 130.384 325.707 130.288C325.827 130.18 325.965 130.126 326.121 130.126C326.289 130.126 326.427 130.18 326.535 130.288C326.643 130.384 326.697 130.51 326.697 130.666V132.196C327.033 131.608 327.447 131.11 327.939 130.702C328.443 130.282 329.031 130.072 329.703 130.072C330.231 130.072 330.609 130.222 330.837 130.522C331.077 130.81 331.197 131.158 331.197 131.566V132.142C331.197 132.298 331.143 132.43 331.035 132.538C330.927 132.634 330.795 132.682 330.639 132.682C330.459 132.682 330.327 132.628 330.243 132.52C330.159 132.412 330.117 132.28 330.117 132.124V131.71C330.117 131.362 329.913 131.188 329.505 131.188C328.797 131.188 328.065 131.692 327.309 132.7C327.129 132.94 326.979 133.24 326.859 133.6C326.751 133.96 326.697 134.296 326.697 134.608L326.679 138.586C326.679 138.718 326.619 138.838 326.499 138.946C326.391 139.054 326.265 139.108 326.121 139.108ZM335.478 139.108C334.794 139.108 334.17 138.928 333.606 138.568C333.054 138.196 332.616 137.698 332.292 137.074C331.98 136.438 331.824 135.736 331.824 134.968C331.824 134.152 332.004 133.372 332.364 132.628C332.736 131.884 333.246 131.284 333.894 130.828C334.542 130.36 335.256 130.126 336.036 130.126C336.708 130.126 337.32 130.312 337.872 130.684C338.436 131.044 338.874 131.542 339.186 132.178C339.51 132.802 339.672 133.492 339.672 134.248C339.672 135.112 339.48 135.916 339.096 136.66C338.712 137.404 338.196 137.998 337.548 138.442C336.912 138.886 336.222 139.108 335.478 139.108ZM335.55 138.082C336.066 138.082 336.552 137.908 337.008 137.56C337.464 137.212 337.83 136.75 338.106 136.174C338.382 135.598 338.52 134.986 338.52 134.338C338.52 133.774 338.406 133.252 338.178 132.772C337.95 132.28 337.638 131.89 337.242 131.602C336.858 131.302 336.426 131.152 335.946 131.152C335.418 131.152 334.926 131.332 334.47 131.692C334.026 132.04 333.666 132.508 333.39 133.096C333.126 133.672 332.994 134.284 332.994 134.932C332.994 135.556 333.108 136.108 333.336 136.588C333.576 137.056 333.894 137.422 334.29 137.686C334.686 137.95 335.106 138.082 335.55 138.082ZM344.771 142.384C344.099 142.384 343.367 142.294 342.575 142.114C342.443 142.09 342.335 142.024 342.251 141.916C342.167 141.82 342.125 141.706 342.125 141.574C342.125 141.418 342.179 141.286 342.287 141.178C342.407 141.07 342.545 141.016 342.701 141.016C342.761 141.016 342.899 141.04 343.115 141.088C343.655 141.208 344.201 141.268 344.753 141.268C345.641 141.268 346.283 141.04 346.679 140.584C347.087 140.14 347.309 139.504 347.345 138.676L347.381 137.776C347.069 138.196 346.703 138.52 346.283 138.748C345.863 138.964 345.413 139.078 344.933 139.09C344.261 139.09 343.649 138.904 343.097 138.532C342.557 138.16 342.131 137.65 341.819 137.002C341.507 136.342 341.351 135.61 341.351 134.806C341.351 134.002 341.537 133.24 341.909 132.52C342.293 131.788 342.809 131.206 343.457 130.774C344.105 130.33 344.825 130.108 345.617 130.108C346.229 130.108 346.871 130.288 347.543 130.648C347.543 130.156 347.729 129.91 348.101 129.91C348.257 129.91 348.389 129.964 348.497 130.072C348.617 130.18 348.677 130.318 348.677 130.486L348.479 138.712C348.455 139.936 348.101 140.854 347.417 141.466C346.745 142.078 345.863 142.384 344.771 142.384ZM344.789 138.01C345.521 138.01 346.145 137.716 346.661 137.128C347.189 136.54 347.453 135.598 347.453 134.302V131.764C347.261 131.608 346.997 131.482 346.661 131.386C346.337 131.278 346.013 131.224 345.689 131.224C345.089 131.224 344.537 131.386 344.033 131.71C343.529 132.022 343.127 132.454 342.827 133.006C342.527 133.558 342.377 134.17 342.377 134.842C342.377 135.322 342.461 135.808 342.629 136.3C342.809 136.792 343.079 137.2 343.439 137.524C343.811 137.848 344.261 138.01 344.789 138.01ZM352.048 139.108C351.904 139.108 351.772 139.054 351.652 138.946C351.532 138.838 351.472 138.718 351.472 138.586V130.666C351.472 130.51 351.526 130.384 351.634 130.288C351.754 130.18 351.892 130.126 352.048 130.126C352.216 130.126 352.354 130.18 352.462 130.288C352.57 130.384 352.624 130.51 352.624 130.666V132.196C352.96 131.608 353.374 131.11 353.866 130.702C354.37 130.282 354.958 130.072 355.63 130.072C356.158 130.072 356.536 130.222 356.764 130.522C357.004 130.81 357.124 131.158 357.124 131.566V132.142C357.124 132.298 357.07 132.43 356.962 132.538C356.854 132.634 356.722 132.682 356.566 132.682C356.386 132.682 356.254 132.628 356.17 132.52C356.086 132.412 356.044 132.28 356.044 132.124V131.71C356.044 131.362 355.84 131.188 355.432 131.188C354.724 131.188 353.992 131.692 353.236 132.7C353.056 132.94 352.906 133.24 352.786 133.6C352.678 133.96 352.624 134.296 352.624 134.608L352.606 138.586C352.606 138.718 352.546 138.838 352.426 138.946C352.318 139.054 352.192 139.108 352.048 139.108ZM364.215 139.252C364.035 139.252 363.897 139.192 363.801 139.072C363.705 138.964 363.657 138.826 363.657 138.658V138.154C363.333 138.442 362.943 138.676 362.487 138.856C362.031 139.024 361.575 139.108 361.119 139.108C360.471 139.108 359.889 138.946 359.373 138.622C358.857 138.298 358.449 137.842 358.149 137.254C357.861 136.654 357.717 135.976 357.717 135.22C357.717 134.404 357.885 133.606 358.221 132.826C358.569 132.034 359.067 131.386 359.715 130.882C360.375 130.378 361.149 130.126 362.037 130.126C362.589 130.126 363.075 130.198 363.495 130.342C363.915 130.486 364.341 130.66 364.773 130.864V138.658C364.773 138.826 364.719 138.964 364.611 139.072C364.503 139.192 364.371 139.252 364.215 139.252ZM361.119 138.046C361.587 138.046 362.055 137.938 362.523 137.722C362.991 137.494 363.351 137.254 363.603 137.002L363.675 131.548C363.483 131.464 363.231 131.386 362.919 131.314C362.619 131.23 362.337 131.188 362.073 131.188C361.485 131.188 360.945 131.362 360.453 131.71C359.961 132.058 359.571 132.538 359.283 133.15C359.007 133.75 358.869 134.428 358.869 135.184C358.869 136.06 359.079 136.756 359.499 137.272C359.919 137.788 360.459 138.046 361.119 138.046ZM368.15 139.108C367.994 139.108 367.856 139.054 367.736 138.946C367.628 138.838 367.574 138.712 367.574 138.568V130.684C367.574 130.54 367.628 130.414 367.736 130.306C367.856 130.186 367.994 130.126 368.15 130.126C368.306 130.126 368.438 130.186 368.546 130.306C368.654 130.414 368.708 130.54 368.708 130.684V132.754C369.104 131.974 369.614 131.344 370.238 130.864C370.874 130.372 371.498 130.126 372.11 130.126C372.626 130.126 373.088 130.282 373.496 130.594C373.916 130.894 374.204 131.416 374.36 132.16C374.792 131.464 375.278 130.954 375.818 130.63C376.358 130.294 376.892 130.126 377.42 130.126C378.152 130.126 378.734 130.396 379.166 130.936C379.61 131.476 379.832 132.316 379.832 133.456V138.568C379.832 138.712 379.772 138.838 379.652 138.946C379.544 139.054 379.412 139.108 379.256 139.108C379.1 139.108 378.968 139.054 378.86 138.946C378.752 138.838 378.698 138.712 378.698 138.568V133.33C378.698 132.586 378.578 132.046 378.338 131.71C378.098 131.362 377.744 131.188 377.276 131.188C376.916 131.188 376.514 131.326 376.07 131.602C375.638 131.878 375.266 132.268 374.954 132.772C374.642 133.276 374.486 133.852 374.486 134.5V138.568C374.486 138.712 374.432 138.838 374.324 138.946C374.216 139.054 374.084 139.108 373.928 139.108C373.772 139.108 373.634 139.054 373.514 138.946C373.406 138.838 373.352 138.712 373.352 138.568V133.33C373.352 132.574 373.244 132.028 373.028 131.692C372.812 131.356 372.458 131.188 371.966 131.188C371.558 131.188 371.138 131.362 370.706 131.71C370.274 132.046 369.878 132.46 369.518 132.952C369.194 133.408 368.978 133.834 368.87 134.23C368.762 134.626 368.708 135.178 368.708 135.886V138.568C368.708 138.712 368.654 138.838 368.546 138.946C368.438 139.054 368.306 139.108 368.15 139.108ZM383.039 139.108C382.883 139.108 382.745 139.054 382.625 138.946C382.517 138.838 382.463 138.712 382.463 138.568V130.684C382.463 130.54 382.517 130.414 382.625 130.306C382.745 130.186 382.883 130.126 383.039 130.126C383.195 130.126 383.327 130.186 383.435 130.306C383.543 130.414 383.597 130.54 383.597 130.684V132.754C383.993 131.974 384.503 131.344 385.127 130.864C385.763 130.372 386.387 130.126 386.999 130.126C387.515 130.126 387.977 130.282 388.385 130.594C388.805 130.894 389.093 131.416 389.249 132.16C389.681 131.464 390.167 130.954 390.707 130.63C391.247 130.294 391.781 130.126 392.309 130.126C393.041 130.126 393.623 130.396 394.055 130.936C394.499 131.476 394.721 132.316 394.721 133.456V138.568C394.721 138.712 394.661 138.838 394.541 138.946C394.433 139.054 394.301 139.108 394.145 139.108C393.989 139.108 393.857 139.054 393.749 138.946C393.641 138.838 393.587 138.712 393.587 138.568V133.33C393.587 132.586 393.467 132.046 393.227 131.71C392.987 131.362 392.633 131.188 392.165 131.188C391.805 131.188 391.403 131.326 390.959 131.602C390.527 131.878 390.155 132.268 389.843 132.772C389.531 133.276 389.375 133.852 389.375 134.5V138.568C389.375 138.712 389.321 138.838 389.213 138.946C389.105 139.054 388.973 139.108 388.817 139.108C388.661 139.108 388.523 139.054 388.403 138.946C388.295 138.838 388.241 138.712 388.241 138.568V133.33C388.241 132.574 388.133 132.028 387.917 131.692C387.701 131.356 387.347 131.188 386.855 131.188C386.447 131.188 386.027 131.362 385.595 131.71C385.163 132.046 384.767 132.46 384.407 132.952C384.083 133.408 383.867 133.834 383.759 134.23C383.651 134.626 383.597 135.178 383.597 135.886V138.568C383.597 138.712 383.543 138.838 383.435 138.946C383.327 139.054 383.195 139.108 383.039 139.108ZM398.053 128.704C397.897 128.704 397.765 128.65 397.657 128.542C397.549 128.434 397.495 128.302 397.495 128.146L397.513 127.408C397.513 127.264 397.573 127.138 397.693 127.03C397.813 126.922 397.945 126.868 398.089 126.868C398.233 126.868 398.359 126.928 398.467 127.048C398.575 127.156 398.629 127.282 398.629 127.426L398.611 128.164C398.611 128.32 398.551 128.452 398.431 128.56C398.323 128.656 398.197 128.704 398.053 128.704ZM397.945 139.108C397.789 139.108 397.651 139.054 397.531 138.946C397.411 138.826 397.351 138.688 397.351 138.532L397.459 130.72C397.459 130.564 397.519 130.426 397.639 130.306C397.759 130.186 397.897 130.126 398.053 130.126C398.209 130.126 398.341 130.186 398.449 130.306C398.569 130.414 398.629 130.552 398.629 130.72L398.521 138.532C398.521 138.688 398.461 138.826 398.341 138.946C398.233 139.054 398.101 139.108 397.945 139.108ZM402.005 139.108C401.849 139.108 401.711 139.054 401.591 138.946C401.483 138.838 401.429 138.718 401.429 138.586V130.648C401.429 130.492 401.483 130.366 401.591 130.27C401.711 130.162 401.849 130.108 402.005 130.108C402.161 130.108 402.293 130.162 402.401 130.27C402.509 130.366 402.563 130.492 402.563 130.648V133.492C402.911 132.412 403.391 131.584 404.003 131.008C404.627 130.42 405.329 130.126 406.109 130.126C406.769 130.126 407.291 130.294 407.675 130.63C408.059 130.966 408.335 131.5 408.503 132.232C408.671 132.952 408.755 133.924 408.755 135.148C408.755 136.348 408.749 137.134 408.737 137.506V138.532C408.737 138.688 408.683 138.826 408.575 138.946C408.479 139.054 408.353 139.108 408.197 139.108C408.053 139.108 407.927 139.054 407.819 138.946C407.711 138.826 407.657 138.694 407.657 138.55V137.542C407.645 137.17 407.639 136.396 407.639 135.22C407.639 134.104 407.579 133.258 407.459 132.682C407.351 132.106 407.177 131.716 406.937 131.512C406.709 131.296 406.379 131.188 405.947 131.188C405.539 131.188 405.137 131.338 404.741 131.638C404.345 131.938 403.997 132.364 403.697 132.916C403.301 133.636 403.013 134.314 402.833 134.95C402.665 135.586 402.575 136.24 402.563 136.912L402.545 138.514C402.545 138.682 402.491 138.826 402.383 138.946C402.287 139.054 402.161 139.108 402.005 139.108ZM414.223 142.384C413.551 142.384 412.819 142.294 412.027 142.114C411.895 142.09 411.787 142.024 411.703 141.916C411.619 141.82 411.577 141.706 411.577 141.574C411.577 141.418 411.631 141.286 411.739 141.178C411.859 141.07 411.997 141.016 412.153 141.016C412.213 141.016 412.351 141.04 412.567 141.088C413.107 141.208 413.653 141.268 414.205 141.268C415.093 141.268 415.735 141.04 416.131 140.584C416.539 140.14 416.761 139.504 416.797 138.676L416.833 137.776C416.521 138.196 416.155 138.52 415.735 138.748C415.315 138.964 414.865 139.078 414.385 139.09C413.713 139.09 413.101 138.904 412.549 138.532C412.009 138.16 411.583 137.65 411.271 137.002C410.959 136.342 410.803 135.61 410.803 134.806C410.803 134.002 410.989 133.24 411.361 132.52C411.745 131.788 412.261 131.206 412.909 130.774C413.557 130.33 414.277 130.108 415.069 130.108C415.681 130.108 416.323 130.288 416.995 130.648C416.995 130.156 417.181 129.91 417.553 129.91C417.709 129.91 417.841 129.964 417.949 130.072C418.069 130.18 418.129 130.318 418.129 130.486L417.931 138.712C417.907 139.936 417.553 140.854 416.869 141.466C416.197 142.078 415.315 142.384 414.223 142.384ZM414.241 138.01C414.973 138.01 415.597 137.716 416.113 137.128C416.641 136.54 416.905 135.598 416.905 134.302V131.764C416.713 131.608 416.449 131.482 416.113 131.386C415.789 131.278 415.465 131.224 415.141 131.224C414.541 131.224 413.989 131.386 413.485 131.71C412.981 132.022 412.579 132.454 412.279 133.006C411.979 133.558 411.829 134.17 411.829 134.842C411.829 135.322 411.913 135.808 412.081 136.3C412.261 136.792 412.531 137.2 412.891 137.524C413.263 137.848 413.713 138.01 414.241 138.01ZM300.276 181.108C300.108 181.108 299.97 181.054 299.862 180.946C299.766 180.838 299.718 180.718 299.718 180.586C299.718 180.514 299.742 180.394 299.79 180.226L300.618 177.382H298.638C298.47 177.382 298.332 177.328 298.224 177.22C298.116 177.112 298.062 176.98 298.062 176.824C298.062 176.668 298.116 176.536 298.224 176.428C298.344 176.308 298.482 176.248 298.638 176.248H300.942L301.734 173.494H299.43C299.274 173.494 299.142 173.44 299.034 173.332C298.926 173.224 298.872 173.092 298.872 172.936C298.872 172.78 298.926 172.648 299.034 172.54C299.142 172.432 299.274 172.378 299.43 172.378H302.076L302.994 169.156C303.03 169.048 303.102 168.958 303.21 168.886C303.318 168.802 303.426 168.76 303.534 168.76C303.702 168.76 303.84 168.814 303.948 168.922C304.056 169.03 304.11 169.156 304.11 169.3C304.11 169.384 304.092 169.492 304.056 169.624L303.246 172.378H305.802L306.738 169.156C306.762 169.048 306.828 168.958 306.936 168.886C307.056 168.802 307.17 168.76 307.278 168.76C307.446 168.76 307.578 168.82 307.674 168.94C307.782 169.048 307.836 169.174 307.836 169.318C307.836 169.378 307.818 169.474 307.782 169.606L306.972 172.378H308.682C308.838 172.378 308.97 172.432 309.078 172.54C309.186 172.648 309.24 172.78 309.24 172.936C309.24 173.092 309.186 173.224 309.078 173.332C308.97 173.44 308.838 173.494 308.682 173.494H306.648L305.856 176.248H307.89C308.034 176.248 308.16 176.308 308.268 176.428C308.388 176.536 308.448 176.668 308.448 176.824C308.448 176.98 308.388 177.112 308.268 177.22C308.16 177.328 308.034 177.382 307.89 177.382H305.532L304.56 180.712C304.524 180.832 304.452 180.928 304.344 181C304.248 181.072 304.14 181.108 304.02 181.108C303.852 181.108 303.714 181.054 303.606 180.946C303.51 180.838 303.462 180.706 303.462 180.55C303.462 180.43 303.486 180.316 303.534 180.208L304.344 177.382H301.788L300.816 180.712C300.792 180.82 300.726 180.916 300.618 181C300.51 181.072 300.396 181.108 300.276 181.108ZM304.668 176.248L305.478 173.494H302.922L302.112 176.248H304.668ZM312.43 170.704C312.274 170.704 312.142 170.65 312.034 170.542C311.926 170.434 311.872 170.302 311.872 170.146L311.89 169.408C311.89 169.264 311.95 169.138 312.07 169.03C312.19 168.922 312.322 168.868 312.466 168.868C312.61 168.868 312.736 168.928 312.844 169.048C312.952 169.156 313.006 169.282 313.006 169.426L312.988 170.164C312.988 170.32 312.928 170.452 312.808 170.56C312.7 170.656 312.574 170.704 312.43 170.704ZM312.322 181.108C312.166 181.108 312.028 181.054 311.908 180.946C311.788 180.826 311.728 180.688 311.728 180.532L311.836 172.72C311.836 172.564 311.896 172.426 312.016 172.306C312.136 172.186 312.274 172.126 312.43 172.126C312.586 172.126 312.718 172.186 312.826 172.306C312.946 172.414 313.006 172.552 313.006 172.72L312.898 180.532C312.898 180.688 312.838 180.826 312.718 180.946C312.61 181.054 312.478 181.108 312.322 181.108ZM316.382 181.108C316.226 181.108 316.088 181.054 315.968 180.946C315.86 180.838 315.806 180.718 315.806 180.586V172.648C315.806 172.492 315.86 172.366 315.968 172.27C316.088 172.162 316.226 172.108 316.382 172.108C316.538 172.108 316.67 172.162 316.778 172.27C316.886 172.366 316.94 172.492 316.94 172.648V175.492C317.288 174.412 317.768 173.584 318.38 173.008C319.004 172.42 319.706 172.126 320.486 172.126C321.146 172.126 321.668 172.294 322.052 172.63C322.436 172.966 322.712 173.5 322.88 174.232C323.048 174.952 323.132 175.924 323.132 177.148C323.132 178.348 323.126 179.134 323.114 179.506V180.532C323.114 180.688 323.06 180.826 322.952 180.946C322.856 181.054 322.73 181.108 322.574 181.108C322.43 181.108 322.304 181.054 322.196 180.946C322.088 180.826 322.034 180.694 322.034 180.55V179.542C322.022 179.17 322.016 178.396 322.016 177.22C322.016 176.104 321.956 175.258 321.836 174.682C321.728 174.106 321.554 173.716 321.314 173.512C321.086 173.296 320.756 173.188 320.324 173.188C319.916 173.188 319.514 173.338 319.118 173.638C318.722 173.938 318.374 174.364 318.074 174.916C317.678 175.636 317.39 176.314 317.21 176.95C317.042 177.586 316.952 178.24 316.94 178.912L316.922 180.514C316.922 180.682 316.868 180.826 316.76 180.946C316.664 181.054 316.538 181.108 316.382 181.108ZM329.104 181.108C328.408 181.108 327.754 180.94 327.142 180.604C326.542 180.256 326.062 179.782 325.702 179.182C325.354 178.582 325.18 177.922 325.18 177.202C325.18 176.386 325.366 175.588 325.738 174.808C326.122 174.016 326.626 173.374 327.25 172.882C327.874 172.378 328.522 172.126 329.194 172.126C329.818 172.126 330.328 172.228 330.724 172.432C331.132 172.636 331.522 172.954 331.894 173.386C331.99 173.482 332.038 173.608 332.038 173.764C332.038 173.92 331.984 174.052 331.876 174.16C331.78 174.268 331.654 174.322 331.498 174.322C331.33 174.322 331.192 174.256 331.084 174.124C330.82 173.812 330.55 173.578 330.274 173.422C329.998 173.254 329.65 173.17 329.23 173.17C328.75 173.17 328.282 173.362 327.826 173.746C327.37 174.13 326.998 174.634 326.71 175.258C326.422 175.87 326.278 176.506 326.278 177.166C326.278 177.766 326.416 178.288 326.692 178.732C326.98 179.164 327.34 179.494 327.772 179.722C328.216 179.95 328.66 180.064 329.104 180.064C330.136 180.064 330.94 179.65 331.516 178.822C331.672 178.606 331.84 178.498 332.02 178.498C332.176 178.498 332.308 178.552 332.416 178.66C332.524 178.768 332.578 178.894 332.578 179.038C332.578 179.158 332.518 179.296 332.398 179.452C332.086 179.908 331.636 180.298 331.048 180.622C330.46 180.946 329.812 181.108 329.104 181.108ZM335.015 181.108C334.871 181.108 334.739 181.06 334.619 180.964C334.499 180.856 334.439 180.736 334.439 180.604V169.282C334.439 169.126 334.493 169 334.601 168.904C334.709 168.796 334.847 168.742 335.015 168.742C335.159 168.742 335.285 168.796 335.393 168.904C335.513 169.012 335.573 169.138 335.573 169.282V180.604C335.573 180.736 335.513 180.856 335.393 180.964C335.285 181.06 335.159 181.108 335.015 181.108ZM340.825 181.162C340.153 181.162 339.619 181.012 339.223 180.712C338.839 180.412 338.557 179.902 338.377 179.182C338.197 178.462 338.107 177.46 338.107 176.176C338.107 174.796 338.179 173.662 338.323 172.774C338.359 172.534 338.419 172.366 338.503 172.27C338.599 172.162 338.731 172.108 338.899 172.108C339.043 172.108 339.163 172.156 339.259 172.252C339.367 172.348 339.421 172.48 339.421 172.648C339.421 172.828 339.403 173.062 339.367 173.35C339.259 174.214 339.205 175.3 339.205 176.608C339.205 177.868 339.331 178.774 339.583 179.326C339.835 179.878 340.255 180.154 340.843 180.154C341.383 180.154 341.923 180.016 342.463 179.74C343.015 179.452 343.405 179.176 343.633 178.912C343.777 178.744 343.849 178.474 343.849 178.102L343.921 172.612C343.921 172.468 343.975 172.348 344.083 172.252C344.191 172.156 344.317 172.108 344.461 172.108C344.605 172.108 344.731 172.156 344.839 172.252C344.947 172.348 345.001 172.468 345.001 172.612V180.55C345.001 180.694 344.941 180.826 344.821 180.946C344.701 181.054 344.563 181.108 344.407 181.108C344.215 181.108 344.059 181.048 343.939 180.928C343.831 180.808 343.777 180.658 343.777 180.478V179.794C343.513 180.142 343.105 180.46 342.553 180.748C342.013 181.024 341.437 181.162 340.825 181.162ZM350.126 181.108C349.538 181.108 349.004 180.946 348.524 180.622C348.056 180.298 347.684 179.83 347.408 179.218C347.132 178.594 346.994 177.868 346.994 177.04C346.994 175.504 347.336 174.304 348.02 173.44C348.704 172.576 349.646 172.144 350.846 172.144C351.65 172.144 352.448 172.354 353.24 172.774L353.33 169.192C353.33 169.036 353.39 168.904 353.51 168.796C353.63 168.676 353.768 168.616 353.924 168.616C354.068 168.616 354.194 168.676 354.302 168.796C354.422 168.916 354.482 169.054 354.482 169.21L354.212 180.568C354.212 180.724 354.152 180.856 354.032 180.964C353.924 181.06 353.792 181.108 353.636 181.108C353.468 181.108 353.33 181.048 353.222 180.928C353.114 180.796 353.066 180.646 353.078 180.478L353.096 179.74C352.16 180.652 351.17 181.108 350.126 181.108ZM350.144 180.046C350.696 180.046 351.2 179.932 351.656 179.704C352.112 179.476 352.466 179.206 352.718 178.894C352.982 178.57 353.12 178.288 353.132 178.048L353.222 173.89C352.958 173.734 352.61 173.584 352.178 173.44C351.758 173.296 351.332 173.224 350.9 173.224C349.976 173.224 349.28 173.554 348.812 174.214C348.344 174.874 348.11 175.798 348.11 176.986C348.11 177.946 348.29 178.696 348.65 179.236C349.022 179.776 349.52 180.046 350.144 180.046ZM361.021 181.108C360.145 181.108 359.365 180.916 358.681 180.532C357.997 180.136 357.469 179.608 357.097 178.948C356.725 178.288 356.539 177.568 356.539 176.788C356.539 175.972 356.707 175.21 357.043 174.502C357.391 173.782 357.871 173.206 358.483 172.774C359.095 172.342 359.797 172.126 360.589 172.126C361.309 172.126 361.921 172.264 362.425 172.54C362.941 172.816 363.325 173.146 363.577 173.53C363.841 173.914 363.973 174.256 363.973 174.556C363.973 174.772 363.829 174.964 363.541 175.132L357.961 178.318C358.261 178.894 358.669 179.332 359.185 179.632C359.701 179.92 360.307 180.064 361.003 180.064C361.387 180.064 361.789 179.968 362.209 179.776C362.641 179.584 362.983 179.356 363.235 179.092C363.319 178.972 363.439 178.912 363.595 178.912C363.751 178.912 363.877 178.966 363.973 179.074C364.081 179.17 364.135 179.296 364.135 179.452C364.135 179.572 364.087 179.692 363.991 179.812C363.667 180.184 363.223 180.496 362.659 180.748C362.107 180.988 361.561 181.108 361.021 181.108ZM362.857 174.412C362.689 174.004 362.425 173.698 362.065 173.494C361.705 173.29 361.219 173.188 360.607 173.188C360.031 173.188 359.515 173.35 359.059 173.674C358.603 173.986 358.243 174.412 357.979 174.952C357.727 175.492 357.595 176.086 357.583 176.734C357.583 176.974 357.595 177.166 357.619 177.31L362.857 174.412ZM372.091 180.964C371.995 180.964 371.887 180.934 371.767 180.874L366.115 177.13C366.031 177.082 365.965 177.016 365.917 176.932C365.881 176.836 365.863 176.74 365.863 176.644C365.863 176.56 365.887 176.476 365.935 176.392C365.983 176.296 366.049 176.224 366.133 176.176L372.127 172.342C372.223 172.282 372.325 172.252 372.433 172.252C372.577 172.252 372.703 172.312 372.811 172.432C372.931 172.54 372.991 172.672 372.991 172.828C372.991 172.912 372.967 173.002 372.919 173.098C372.871 173.182 372.805 173.248 372.721 173.296L367.465 176.662L372.397 179.92C372.481 179.968 372.541 180.04 372.577 180.136C372.625 180.22 372.649 180.31 372.649 180.406C372.649 180.55 372.595 180.682 372.487 180.802C372.379 180.91 372.247 180.964 372.091 180.964ZM377.63 181.144C376.946 181.144 376.352 181.006 375.848 180.73C375.356 180.442 374.978 180.112 374.714 179.74C374.462 179.356 374.336 179.032 374.336 178.768C374.336 178.612 374.384 178.486 374.48 178.39C374.588 178.282 374.72 178.228 374.876 178.228C375.14 178.228 375.308 178.354 375.38 178.606C375.548 179.086 375.83 179.458 376.226 179.722C376.622 179.986 377.108 180.118 377.684 180.118C378.26 180.118 378.734 179.962 379.106 179.65C379.478 179.338 379.664 178.966 379.664 178.534C379.664 178.282 379.604 178.072 379.484 177.904C379.376 177.724 379.172 177.556 378.872 177.4C378.584 177.244 378.158 177.082 377.594 176.914C376.622 176.614 375.92 176.266 375.488 175.87C375.056 175.474 374.84 174.952 374.84 174.304C374.84 173.656 375.104 173.134 375.632 172.738C376.172 172.33 376.94 172.126 377.936 172.126C378.836 172.126 379.526 172.312 380.006 172.684C380.498 173.044 380.744 173.542 380.744 174.178C380.744 174.466 380.696 174.688 380.6 174.844C380.504 174.988 380.366 175.06 380.186 175.06C380.03 175.06 379.898 175.012 379.79 174.916C379.682 174.808 379.628 174.688 379.628 174.556C379.628 174.496 379.634 174.43 379.646 174.358C379.67 174.286 379.682 174.22 379.682 174.16C379.682 173.836 379.538 173.584 379.25 173.404C378.962 173.212 378.524 173.116 377.936 173.116C377.288 173.116 376.784 173.224 376.424 173.44C376.076 173.644 375.902 173.938 375.902 174.322C375.902 174.694 376.052 174.988 376.352 175.204C376.664 175.42 377.198 175.654 377.954 175.906C378.674 176.146 379.226 176.374 379.61 176.59C380.006 176.806 380.288 177.064 380.456 177.364C380.636 177.652 380.726 178.024 380.726 178.48C380.726 178.924 380.594 179.35 380.33 179.758C380.078 180.166 379.718 180.502 379.25 180.766C378.782 181.018 378.242 181.144 377.63 181.144ZM383.84 181.126C383.684 181.126 383.546 181.072 383.426 180.964C383.318 180.856 383.264 180.73 383.264 180.586V173.242H381.266C381.11 173.242 380.978 173.188 380.87 173.08C380.762 172.96 380.708 172.822 380.708 172.666C380.708 172.498 380.768 172.366 380.888 172.27C381.008 172.162 381.146 172.108 381.302 172.108H383.264V169.642C383.264 169.486 383.318 169.354 383.426 169.246C383.546 169.126 383.684 169.066 383.84 169.066C384.008 169.066 384.14 169.126 384.236 169.246C384.344 169.354 384.398 169.486 384.398 169.642V172.108H386.414C386.582 172.108 386.72 172.162 386.828 172.27C386.936 172.378 386.99 172.51 386.99 172.666C386.99 172.822 386.93 172.96 386.81 173.08C386.702 173.188 386.57 173.242 386.414 173.242H384.398V180.586C384.398 180.73 384.338 180.856 384.218 180.964C384.11 181.072 383.984 181.126 383.84 181.126ZM389.993 181.108C389.405 181.108 388.871 180.946 388.391 180.622C387.923 180.298 387.551 179.83 387.275 179.218C386.999 178.594 386.861 177.868 386.861 177.04C386.861 175.504 387.203 174.304 387.887 173.44C388.571 172.576 389.513 172.144 390.713 172.144C391.517 172.144 392.315 172.354 393.107 172.774L393.197 169.192C393.197 169.036 393.257 168.904 393.377 168.796C393.497 168.676 393.635 168.616 393.791 168.616C393.935 168.616 394.061 168.676 394.169 168.796C394.289 168.916 394.349 169.054 394.349 169.21L394.079 180.568C394.079 180.724 394.019 180.856 393.899 180.964C393.791 181.06 393.659 181.108 393.503 181.108C393.335 181.108 393.197 181.048 393.089 180.928C392.981 180.796 392.933 180.646 392.945 180.478L392.963 179.74C392.027 180.652 391.037 181.108 389.993 181.108ZM390.011 180.046C390.563 180.046 391.067 179.932 391.523 179.704C391.979 179.476 392.333 179.206 392.585 178.894C392.849 178.57 392.987 178.288 392.999 178.048L393.089 173.89C392.825 173.734 392.477 173.584 392.045 173.44C391.625 173.296 391.199 173.224 390.767 173.224C389.843 173.224 389.147 173.554 388.679 174.214C388.211 174.874 387.977 175.798 387.977 176.986C387.977 177.946 388.157 178.696 388.517 179.236C388.889 179.776 389.387 180.046 390.011 180.046ZM397.684 170.704C397.528 170.704 397.396 170.65 397.288 170.542C397.18 170.434 397.126 170.302 397.126 170.146L397.144 169.408C397.144 169.264 397.204 169.138 397.324 169.03C397.444 168.922 397.576 168.868 397.72 168.868C397.864 168.868 397.99 168.928 398.098 169.048C398.206 169.156 398.26 169.282 398.26 169.426L398.242 170.164C398.242 170.32 398.182 170.452 398.062 170.56C397.954 170.656 397.828 170.704 397.684 170.704ZM397.576 181.108C397.42 181.108 397.282 181.054 397.162 180.946C397.042 180.826 396.982 180.688 396.982 180.532L397.09 172.72C397.09 172.564 397.15 172.426 397.27 172.306C397.39 172.186 397.528 172.126 397.684 172.126C397.84 172.126 397.972 172.186 398.08 172.306C398.2 172.414 398.26 172.552 398.26 172.72L398.152 180.532C398.152 180.688 398.092 180.826 397.972 180.946C397.864 181.054 397.732 181.108 397.576 181.108ZM404.138 181.108C403.454 181.108 402.83 180.928 402.266 180.568C401.714 180.196 401.276 179.698 400.952 179.074C400.64 178.438 400.484 177.736 400.484 176.968C400.484 176.152 400.664 175.372 401.024 174.628C401.396 173.884 401.906 173.284 402.554 172.828C403.202 172.36 403.916 172.126 404.696 172.126C405.368 172.126 405.98 172.312 406.532 172.684C407.096 173.044 407.534 173.542 407.846 174.178C408.17 174.802 408.332 175.492 408.332 176.248C408.332 177.112 408.14 177.916 407.756 178.66C407.372 179.404 406.856 179.998 406.208 180.442C405.572 180.886 404.882 181.108 404.138 181.108ZM404.21 180.082C404.726 180.082 405.212 179.908 405.668 179.56C406.124 179.212 406.49 178.75 406.766 178.174C407.042 177.598 407.18 176.986 407.18 176.338C407.18 175.774 407.066 175.252 406.838 174.772C406.61 174.28 406.298 173.89 405.902 173.602C405.518 173.302 405.086 173.152 404.606 173.152C404.078 173.152 403.586 173.332 403.13 173.692C402.686 174.04 402.326 174.508 402.05 175.096C401.786 175.672 401.654 176.284 401.654 176.932C401.654 177.556 401.768 178.108 401.996 178.588C402.236 179.056 402.554 179.422 402.95 179.686C403.346 179.95 403.766 180.082 404.21 180.082ZM409.987 181.108C409.795 181.108 409.639 181.036 409.519 180.892C409.399 180.748 409.339 180.574 409.339 180.37C409.339 180.142 409.417 179.944 409.573 179.776C409.729 179.596 409.909 179.506 410.113 179.506C410.293 179.506 410.443 179.578 410.563 179.722C410.695 179.854 410.761 180.016 410.761 180.208C410.761 180.46 410.683 180.676 410.527 180.856C410.371 181.024 410.191 181.108 409.987 181.108ZM413.466 181.126C413.31 181.126 413.172 181.072 413.052 180.964C412.944 180.844 412.89 180.712 412.89 180.568V169.318C412.89 169.162 412.944 169.03 413.052 168.922C413.172 168.802 413.31 168.742 413.466 168.742C413.634 168.742 413.766 168.802 413.862 168.922C413.97 169.03 414.024 169.162 414.024 169.318V174.844C414.384 174.1 414.882 173.452 415.518 172.9C416.166 172.348 416.826 172.072 417.498 172.072C418.386 172.072 419.01 172.564 419.37 173.548C419.73 174.532 419.91 176.074 419.91 178.174C419.91 179.362 419.892 180.16 419.856 180.568C419.844 180.724 419.79 180.856 419.694 180.964C419.598 181.06 419.472 181.108 419.316 181.108C419.172 181.108 419.04 181.054 418.92 180.946C418.812 180.838 418.758 180.712 418.758 180.568C418.758 180.388 418.764 180.22 418.776 180.064L418.794 178.3C418.794 176.272 418.662 174.916 418.398 174.232C418.134 173.536 417.804 173.188 417.408 173.188C416.964 173.188 416.526 173.374 416.094 173.746C415.662 174.106 415.284 174.514 414.96 174.97C414.648 175.414 414.426 175.78 414.294 176.068C414.114 176.428 414.024 176.944 414.024 177.616V180.532C414.024 180.712 413.97 180.856 413.862 180.964C413.754 181.072 413.622 181.126 413.466 181.126ZM423.351 180.964C423.207 180.964 423.075 180.91 422.955 180.802C422.847 180.682 422.793 180.55 422.793 180.406C422.793 180.202 422.883 180.04 423.063 179.92L427.977 176.662L422.721 173.296C422.637 173.248 422.571 173.182 422.523 173.098C422.475 173.014 422.451 172.924 422.451 172.828C422.451 172.672 422.505 172.54 422.613 172.432C422.733 172.312 422.871 172.252 423.027 172.252C423.111 172.252 423.213 172.282 423.333 172.342L429.309 176.176C429.393 176.224 429.459 176.296 429.507 176.392C429.555 176.476 429.579 176.56 429.579 176.644C429.579 176.872 429.495 177.034 429.327 177.13L423.675 180.874C423.579 180.934 423.471 180.964 423.351 180.964ZM299.106 191.704C298.95 191.704 298.818 191.65 298.71 191.542C298.602 191.434 298.548 191.302 298.548 191.146L298.566 190.408C298.566 190.264 298.626 190.138 298.746 190.03C298.866 189.922 298.998 189.868 299.142 189.868C299.286 189.868 299.412 189.928 299.52 190.048C299.628 190.156 299.682 190.282 299.682 190.426L299.664 191.164C299.664 191.32 299.604 191.452 299.484 191.56C299.376 191.656 299.25 191.704 299.106 191.704ZM298.998 202.108C298.842 202.108 298.704 202.054 298.584 201.946C298.464 201.826 298.404 201.688 298.404 201.532L298.512 193.72C298.512 193.564 298.572 193.426 298.692 193.306C298.812 193.186 298.95 193.126 299.106 193.126C299.262 193.126 299.394 193.186 299.502 193.306C299.622 193.414 299.682 193.552 299.682 193.72L299.574 201.532C299.574 201.688 299.514 201.826 299.394 201.946C299.286 202.054 299.154 202.108 298.998 202.108ZM303.058 202.108C302.902 202.108 302.764 202.054 302.644 201.946C302.536 201.838 302.482 201.718 302.482 201.586V193.648C302.482 193.492 302.536 193.366 302.644 193.27C302.764 193.162 302.902 193.108 303.058 193.108C303.214 193.108 303.346 193.162 303.454 193.27C303.562 193.366 303.616 193.492 303.616 193.648V196.492C303.964 195.412 304.444 194.584 305.056 194.008C305.68 193.42 306.382 193.126 307.162 193.126C307.822 193.126 308.344 193.294 308.728 193.63C309.112 193.966 309.388 194.5 309.556 195.232C309.724 195.952 309.808 196.924 309.808 198.148C309.808 199.348 309.802 200.134 309.79 200.506V201.532C309.79 201.688 309.736 201.826 309.628 201.946C309.532 202.054 309.406 202.108 309.25 202.108C309.106 202.108 308.98 202.054 308.872 201.946C308.764 201.826 308.71 201.694 308.71 201.55V200.542C308.698 200.17 308.692 199.396 308.692 198.22C308.692 197.104 308.632 196.258 308.512 195.682C308.404 195.106 308.23 194.716 307.99 194.512C307.762 194.296 307.432 194.188 307 194.188C306.592 194.188 306.19 194.338 305.794 194.638C305.398 194.938 305.05 195.364 304.75 195.916C304.354 196.636 304.066 197.314 303.886 197.95C303.718 198.586 303.628 199.24 303.616 199.912L303.598 201.514C303.598 201.682 303.544 201.826 303.436 201.946C303.34 202.054 303.214 202.108 303.058 202.108ZM313.457 202.126C313.301 202.126 313.163 202.072 313.043 201.964C312.935 201.856 312.881 201.73 312.881 201.586V194.242H310.883C310.727 194.242 310.595 194.188 310.487 194.08C310.379 193.96 310.325 193.822 310.325 193.666C310.325 193.498 310.385 193.366 310.505 193.27C310.625 193.162 310.763 193.108 310.919 193.108H312.881V190.642C312.881 190.486 312.935 190.354 313.043 190.246C313.163 190.126 313.301 190.066 313.457 190.066C313.625 190.066 313.757 190.126 313.853 190.246C313.961 190.354 314.015 190.486 314.015 190.642V193.108H316.031C316.199 193.108 316.337 193.162 316.445 193.27C316.553 193.378 316.607 193.51 316.607 193.666C316.607 193.822 316.547 193.96 316.427 194.08C316.319 194.188 316.187 194.242 316.031 194.242H314.015V201.586C314.015 201.73 313.955 201.856 313.835 201.964C313.727 202.072 313.601 202.126 313.457 202.126ZM324.169 202.108C324.013 202.108 323.875 202.054 323.755 201.946C323.647 201.838 323.593 201.712 323.593 201.568V193.684C323.593 193.54 323.647 193.414 323.755 193.306C323.875 193.186 324.013 193.126 324.169 193.126C324.325 193.126 324.457 193.186 324.565 193.306C324.673 193.414 324.727 193.54 324.727 193.684V195.754C325.123 194.974 325.633 194.344 326.257 193.864C326.893 193.372 327.517 193.126 328.129 193.126C328.645 193.126 329.107 193.282 329.515 193.594C329.935 193.894 330.223 194.416 330.379 195.16C330.811 194.464 331.297 193.954 331.837 193.63C332.377 193.294 332.911 193.126 333.439 193.126C334.171 193.126 334.753 193.396 335.185 193.936C335.629 194.476 335.851 195.316 335.851 196.456V201.568C335.851 201.712 335.791 201.838 335.671 201.946C335.563 202.054 335.431 202.108 335.275 202.108C335.119 202.108 334.987 202.054 334.879 201.946C334.771 201.838 334.717 201.712 334.717 201.568V196.33C334.717 195.586 334.597 195.046 334.357 194.71C334.117 194.362 333.763 194.188 333.295 194.188C332.935 194.188 332.533 194.326 332.089 194.602C331.657 194.878 331.285 195.268 330.973 195.772C330.661 196.276 330.505 196.852 330.505 197.5V201.568C330.505 201.712 330.451 201.838 330.343 201.946C330.235 202.054 330.103 202.108 329.947 202.108C329.791 202.108 329.653 202.054 329.533 201.946C329.425 201.838 329.371 201.712 329.371 201.568V196.33C329.371 195.574 329.263 195.028 329.047 194.692C328.831 194.356 328.477 194.188 327.985 194.188C327.577 194.188 327.157 194.362 326.725 194.71C326.293 195.046 325.897 195.46 325.537 195.952C325.213 196.408 324.997 196.834 324.889 197.23C324.781 197.626 324.727 198.178 324.727 198.886V201.568C324.727 201.712 324.673 201.838 324.565 201.946C324.457 202.054 324.325 202.108 324.169 202.108ZM344.404 202.252C344.224 202.252 344.086 202.192 343.99 202.072C343.894 201.964 343.846 201.826 343.846 201.658V201.154C343.522 201.442 343.132 201.676 342.676 201.856C342.22 202.024 341.764 202.108 341.308 202.108C340.66 202.108 340.078 201.946 339.562 201.622C339.046 201.298 338.638 200.842 338.338 200.254C338.05 199.654 337.906 198.976 337.906 198.22C337.906 197.404 338.074 196.606 338.41 195.826C338.758 195.034 339.256 194.386 339.904 193.882C340.564 193.378 341.338 193.126 342.226 193.126C342.778 193.126 343.264 193.198 343.684 193.342C344.104 193.486 344.53 193.66 344.962 193.864V201.658C344.962 201.826 344.908 201.964 344.8 202.072C344.692 202.192 344.56 202.252 344.404 202.252ZM341.308 201.046C341.776 201.046 342.244 200.938 342.712 200.722C343.18 200.494 343.54 200.254 343.792 200.002L343.864 194.548C343.672 194.464 343.42 194.386 343.108 194.314C342.808 194.23 342.526 194.188 342.262 194.188C341.674 194.188 341.134 194.362 340.642 194.71C340.15 195.058 339.76 195.538 339.472 196.15C339.196 196.75 339.058 197.428 339.058 198.184C339.058 199.06 339.268 199.756 339.688 200.272C340.108 200.788 340.648 201.046 341.308 201.046ZM348.465 191.704C348.309 191.704 348.177 191.65 348.069 191.542C347.961 191.434 347.907 191.302 347.907 191.146L347.925 190.408C347.925 190.264 347.985 190.138 348.105 190.03C348.225 189.922 348.357 189.868 348.501 189.868C348.645 189.868 348.771 189.928 348.879 190.048C348.987 190.156 349.041 190.282 349.041 190.426L349.023 191.164C349.023 191.32 348.963 191.452 348.843 191.56C348.735 191.656 348.609 191.704 348.465 191.704ZM348.357 202.108C348.201 202.108 348.063 202.054 347.943 201.946C347.823 201.826 347.763 201.688 347.763 201.532L347.871 193.72C347.871 193.564 347.931 193.426 348.051 193.306C348.171 193.186 348.309 193.126 348.465 193.126C348.621 193.126 348.753 193.186 348.861 193.306C348.981 193.414 349.041 193.552 349.041 193.72L348.933 201.532C348.933 201.688 348.873 201.826 348.753 201.946C348.645 202.054 348.513 202.108 348.357 202.108ZM352.418 202.108C352.262 202.108 352.124 202.054 352.004 201.946C351.896 201.838 351.842 201.718 351.842 201.586V193.648C351.842 193.492 351.896 193.366 352.004 193.27C352.124 193.162 352.262 193.108 352.418 193.108C352.574 193.108 352.706 193.162 352.813 193.27C352.922 193.366 352.976 193.492 352.976 193.648V196.492C353.324 195.412 353.804 194.584 354.416 194.008C355.04 193.42 355.742 193.126 356.522 193.126C357.182 193.126 357.704 193.294 358.088 193.63C358.472 193.966 358.748 194.5 358.916 195.232C359.084 195.952 359.168 196.924 359.168 198.148C359.168 199.348 359.162 200.134 359.15 200.506V201.532C359.15 201.688 359.096 201.826 358.988 201.946C358.892 202.054 358.766 202.108 358.61 202.108C358.466 202.108 358.34 202.054 358.232 201.946C358.124 201.826 358.07 201.694 358.07 201.55V200.542C358.058 200.17 358.052 199.396 358.052 198.22C358.052 197.104 357.992 196.258 357.872 195.682C357.764 195.106 357.59 194.716 357.35 194.512C357.122 194.296 356.792 194.188 356.36 194.188C355.952 194.188 355.55 194.338 355.154 194.638C354.758 194.938 354.41 195.364 354.11 195.916C353.714 196.636 353.426 197.314 353.246 197.95C353.078 198.586 352.988 199.24 352.976 199.912L352.958 201.514C352.958 201.682 352.904 201.826 352.796 201.946C352.7 202.054 352.574 202.108 352.418 202.108ZM365.049 204.016C364.845 204.016 364.677 203.938 364.545 203.782C362.493 201.334 361.467 198.676 361.467 195.808C361.467 194.332 361.767 192.922 362.367 191.578C362.967 190.234 363.783 189.076 364.815 188.104C365.007 187.948 365.163 187.87 365.283 187.87C365.427 187.87 365.553 187.93 365.661 188.05C365.781 188.158 365.841 188.29 365.841 188.446C365.841 188.614 365.775 188.758 365.643 188.878C365.187 189.286 364.725 189.832 364.257 190.516C363.801 191.188 363.411 191.98 363.087 192.892C362.763 193.804 362.601 194.776 362.601 195.808C362.601 197.2 362.859 198.526 363.375 199.786C363.903 201.034 364.581 202.126 365.409 203.062C365.529 203.182 365.589 203.32 365.589 203.476C365.589 203.62 365.529 203.746 365.409 203.854C365.301 203.962 365.181 204.016 365.049 204.016ZM368.193 204.016C368.049 204.016 367.917 203.962 367.797 203.854C367.689 203.746 367.635 203.62 367.635 203.476C367.635 203.308 367.695 203.17 367.815 203.062C368.583 202.246 369.243 201.184 369.795 199.876C370.359 198.568 370.641 197.212 370.641 195.808C370.641 194.404 370.347 193.096 369.759 191.884C369.171 190.672 368.451 189.67 367.599 188.878C367.455 188.734 367.383 188.59 367.383 188.446C367.383 188.29 367.437 188.158 367.545 188.05C367.665 187.93 367.803 187.87 367.959 187.87C368.067 187.87 368.217 187.948 368.409 188.104C369.441 189.076 370.257 190.234 370.857 191.578C371.457 192.922 371.757 194.332 371.757 195.808C371.757 197.368 371.469 198.82 370.893 200.164C370.329 201.508 369.591 202.714 368.679 203.782C368.571 203.938 368.409 204.016 368.193 204.016ZM378.088 204.304C377.836 204.304 377.5 204.22 377.08 204.052C376.66 203.884 376.276 203.596 375.928 203.188C375.592 202.792 375.424 202.276 375.424 201.64V198.022C375.424 197.602 375.316 197.248 375.1 196.96C374.884 196.672 374.608 196.468 374.272 196.348C374.032 196.252 373.912 196.084 373.912 195.844C373.912 195.724 373.936 195.628 373.984 195.556C374.044 195.472 374.134 195.4 374.254 195.34C374.698 195.124 375.004 194.884 375.172 194.62C375.34 194.356 375.424 194.032 375.424 193.648V190.3C375.424 189.664 375.598 189.148 375.946 188.752C376.294 188.356 376.678 188.074 377.098 187.906C377.53 187.738 377.878 187.654 378.142 187.654C378.286 187.654 378.412 187.708 378.52 187.816C378.628 187.924 378.682 188.05 378.682 188.194C378.682 188.506 378.508 188.686 378.16 188.734C377.74 188.806 377.356 188.968 377.008 189.22C376.672 189.46 376.504 189.82 376.504 190.3V193.63C376.504 194.554 376.168 195.292 375.496 195.844C375.796 196.084 376.036 196.396 376.216 196.78C376.408 197.152 376.504 197.572 376.504 198.04V201.64C376.504 202.132 376.672 202.498 377.008 202.738C377.356 202.99 377.74 203.146 378.16 203.206C378.316 203.242 378.442 203.308 378.538 203.404C378.634 203.5 378.682 203.62 378.682 203.764C378.682 203.92 378.622 204.046 378.502 204.142C378.394 204.25 378.256 204.304 378.088 204.304ZM317.141 212.704C316.985 212.704 316.853 212.65 316.745 212.542C316.637 212.434 316.583 212.302 316.583 212.146L316.601 211.408C316.601 211.264 316.661 211.138 316.781 211.03C316.901 210.922 317.033 210.868 317.177 210.868C317.321 210.868 317.447 210.928 317.555 211.048C317.663 211.156 317.717 211.282 317.717 211.426L317.699 212.164C317.699 212.32 317.639 212.452 317.519 212.56C317.411 212.656 317.285 212.704 317.141 212.704ZM317.033 223.108C316.877 223.108 316.739 223.054 316.619 222.946C316.499 222.826 316.439 222.688 316.439 222.532L316.547 214.72C316.547 214.564 316.607 214.426 316.727 214.306C316.847 214.186 316.985 214.126 317.141 214.126C317.297 214.126 317.429 214.186 317.537 214.306C317.657 214.414 317.717 214.552 317.717 214.72L317.609 222.532C317.609 222.688 317.549 222.826 317.429 222.946C317.321 223.054 317.189 223.108 317.033 223.108ZM321.093 223.108C320.937 223.108 320.799 223.054 320.679 222.946C320.571 222.838 320.517 222.718 320.517 222.586V214.648C320.517 214.492 320.571 214.366 320.679 214.27C320.799 214.162 320.937 214.108 321.093 214.108C321.249 214.108 321.381 214.162 321.489 214.27C321.597 214.366 321.651 214.492 321.651 214.648V217.492C321.999 216.412 322.479 215.584 323.091 215.008C323.715 214.42 324.417 214.126 325.197 214.126C325.857 214.126 326.379 214.294 326.763 214.63C327.147 214.966 327.423 215.5 327.591 216.232C327.759 216.952 327.843 217.924 327.843 219.148C327.843 220.348 327.837 221.134 327.825 221.506V222.532C327.825 222.688 327.771 222.826 327.663 222.946C327.567 223.054 327.441 223.108 327.285 223.108C327.141 223.108 327.015 223.054 326.907 222.946C326.799 222.826 326.745 222.694 326.745 222.55V221.542C326.733 221.17 326.727 220.396 326.727 219.22C326.727 218.104 326.667 217.258 326.547 216.682C326.439 216.106 326.265 215.716 326.025 215.512C325.797 215.296 325.467 215.188 325.035 215.188C324.627 215.188 324.225 215.338 323.829 215.638C323.433 215.938 323.085 216.364 322.785 216.916C322.389 217.636 322.101 218.314 321.921 218.95C321.753 219.586 321.663 220.24 321.651 220.912L321.633 222.514C321.633 222.682 321.579 222.826 321.471 222.946C321.375 223.054 321.249 223.108 321.093 223.108ZM331.493 223.126C331.337 223.126 331.199 223.072 331.079 222.964C330.971 222.856 330.917 222.73 330.917 222.586V215.242H328.918C328.762 215.242 328.63 215.188 328.522 215.08C328.414 214.96 328.36 214.822 328.36 214.666C328.36 214.498 328.42 214.366 328.54 214.27C328.66 214.162 328.798 214.108 328.954 214.108H330.917V211.642C330.917 211.486 330.971 211.354 331.079 211.246C331.199 211.126 331.337 211.066 331.493 211.066C331.661 211.066 331.793 211.126 331.889 211.246C331.997 211.354 332.051 211.486 332.051 211.642V214.108H334.067C334.235 214.108 334.373 214.162 334.481 214.27C334.589 214.378 334.643 214.51 334.643 214.666C334.643 214.822 334.583 214.96 334.463 215.08C334.355 215.188 334.223 215.242 334.067 215.242H332.051V222.586C332.051 222.73 331.991 222.856 331.871 222.964C331.763 223.072 331.637 223.126 331.493 223.126ZM347.551 223.252C347.371 223.252 347.233 223.192 347.137 223.072C347.041 222.964 346.993 222.826 346.993 222.658V222.154C346.669 222.442 346.279 222.676 345.823 222.856C345.367 223.024 344.911 223.108 344.455 223.108C343.807 223.108 343.225 222.946 342.709 222.622C342.193 222.298 341.785 221.842 341.485 221.254C341.197 220.654 341.053 219.976 341.053 219.22C341.053 218.404 341.221 217.606 341.557 216.826C341.905 216.034 342.403 215.386 343.051 214.882C343.711 214.378 344.485 214.126 345.373 214.126C345.925 214.126 346.411 214.198 346.831 214.342C347.251 214.486 347.677 214.66 348.109 214.864V222.658C348.109 222.826 348.055 222.964 347.947 223.072C347.839 223.192 347.707 223.252 347.551 223.252ZM344.455 222.046C344.923 222.046 345.391 221.938 345.859 221.722C346.327 221.494 346.687 221.254 346.939 221.002L347.011 215.548C346.819 215.464 346.567 215.386 346.255 215.314C345.955 215.23 345.673 215.188 345.409 215.188C344.821 215.188 344.281 215.362 343.789 215.71C343.297 216.058 342.907 216.538 342.619 217.15C342.343 217.75 342.205 218.428 342.205 219.184C342.205 220.06 342.415 220.756 342.835 221.272C343.255 221.788 343.795 222.046 344.455 222.046ZM351.126 217.744C350.97 217.744 350.838 217.696 350.73 217.6C350.622 217.492 350.568 217.36 350.568 217.204C350.568 217.048 350.622 216.916 350.73 216.808C350.838 216.688 350.97 216.628 351.126 216.628H356.184C356.34 216.628 356.472 216.688 356.58 216.808C356.7 216.916 356.76 217.048 356.76 217.204C356.76 217.36 356.7 217.492 356.58 217.6C356.472 217.696 356.34 217.744 356.184 217.744H351.126ZM351.126 220.588C350.97 220.588 350.838 220.54 350.73 220.444C350.622 220.336 350.568 220.204 350.568 220.048C350.568 219.892 350.622 219.76 350.73 219.652C350.838 219.544 350.97 219.49 351.126 219.49H356.184C356.34 219.49 356.472 219.544 356.58 219.652C356.7 219.76 356.76 219.892 356.76 220.048C356.76 220.204 356.7 220.336 356.58 220.444C356.472 220.54 356.34 220.588 356.184 220.588H351.126ZM362.068 223.108C361.36 223.108 360.748 222.976 360.232 222.712C359.728 222.436 359.344 222.148 359.08 221.848C358.816 221.548 358.642 221.308 358.558 221.128C358.498 221.032 358.468 220.912 358.468 220.768C358.468 220.612 358.516 220.486 358.612 220.39C358.72 220.294 358.852 220.246 359.008 220.246C359.248 220.246 359.416 220.348 359.512 220.552C359.704 220.888 360.004 221.212 360.412 221.524C360.832 221.824 361.372 221.974 362.032 221.974C362.464 221.974 362.884 221.878 363.292 221.686C363.7 221.494 364.03 221.206 364.282 220.822C364.546 220.426 364.678 219.952 364.678 219.4C364.678 218.74 364.504 218.212 364.156 217.816C363.808 217.42 363.406 217.144 362.95 216.988C362.494 216.832 362.086 216.754 361.726 216.754C361.57 216.754 361.438 216.7 361.33 216.592C361.234 216.484 361.186 216.352 361.186 216.196C361.186 216.028 361.24 215.896 361.348 215.8C361.456 215.692 361.588 215.638 361.744 215.638C362.152 215.638 362.56 215.542 362.968 215.35C363.388 215.146 363.73 214.882 363.994 214.558C364.258 214.234 364.39 213.886 364.39 213.514C364.39 213.25 364.294 212.992 364.102 212.74C363.922 212.488 363.652 212.284 363.292 212.128C362.944 211.972 362.53 211.894 362.05 211.894C361.522 211.894 361.102 211.96 360.79 212.092C360.478 212.224 360.196 212.386 359.944 212.578C359.788 212.698 359.656 212.758 359.548 212.758C359.368 212.758 359.23 212.704 359.134 212.596C359.038 212.476 358.99 212.344 358.99 212.2C358.99 211.96 359.194 211.708 359.602 211.444C359.914 211.252 360.28 211.09 360.7 210.958C361.12 210.826 361.57 210.76 362.05 210.76C362.686 210.76 363.268 210.886 363.796 211.138C364.336 211.378 364.756 211.708 365.056 212.128C365.368 212.548 365.524 213.01 365.524 213.514C365.524 214.054 365.368 214.558 365.056 215.026C364.744 215.482 364.33 215.86 363.814 216.16C364.45 216.448 364.936 216.88 365.272 217.456C365.62 218.032 365.794 218.68 365.794 219.4C365.794 220.24 365.596 220.942 365.2 221.506C364.804 222.058 364.318 222.466 363.742 222.73C363.166 222.982 362.608 223.108 362.068 223.108ZM367.97 224.764C367.838 224.764 367.724 224.716 367.628 224.62C367.532 224.536 367.484 224.428 367.484 224.296C367.484 224.248 367.496 224.188 367.52 224.116L367.934 223.018C367.802 222.838 367.736 222.658 367.736 222.478C367.736 222.25 367.814 222.052 367.97 221.884C368.126 221.704 368.306 221.614 368.51 221.614C368.69 221.614 368.84 221.68 368.96 221.812C369.092 221.944 369.158 222.088 369.158 222.244C369.158 222.4 369.128 222.556 369.068 222.712C369.02 222.868 368.918 223.138 368.762 223.522L368.6 223.918C368.468 224.266 368.366 224.494 368.294 224.602C368.222 224.71 368.114 224.764 367.97 224.764ZM371.841 223.108C371.697 223.108 371.565 223.06 371.445 222.964C371.337 222.856 371.283 222.73 371.283 222.586V211.246C371.283 211.102 371.337 210.982 371.445 210.886C371.565 210.79 371.703 210.742 371.859 210.742C372.003 210.742 372.129 210.79 372.237 210.886C372.345 210.982 372.399 211.102 372.399 211.246V215.656C372.783 215.212 373.251 214.87 373.803 214.63C374.355 214.39 374.931 214.27 375.531 214.27C376.479 214.27 377.241 214.63 377.817 215.35C378.393 216.058 378.681 217.018 378.681 218.23C378.681 219.658 378.351 220.81 377.691 221.686C377.043 222.55 376.065 222.982 374.757 222.982C374.349 222.982 373.929 222.934 373.497 222.838C373.065 222.73 372.693 222.61 372.381 222.478V222.622C372.381 222.742 372.327 222.856 372.219 222.964C372.111 223.06 371.985 223.108 371.841 223.108ZM374.613 221.902C376.605 221.902 377.601 220.678 377.601 218.23C377.601 217.342 377.409 216.652 377.025 216.16C376.653 215.656 376.149 215.404 375.513 215.404C374.937 215.404 374.409 215.512 373.929 215.728C373.461 215.944 373.089 216.238 372.813 216.61C372.537 216.982 372.399 217.39 372.399 217.834V221.452C372.627 221.548 372.945 221.65 373.353 221.758C373.773 221.854 374.193 221.902 374.613 221.902ZM381.132 217.744C380.976 217.744 380.844 217.696 380.736 217.6C380.628 217.492 380.574 217.36 380.574 217.204C380.574 217.048 380.628 216.916 380.736 216.808C380.844 216.688 380.976 216.628 381.132 216.628H386.19C386.346 216.628 386.478 216.688 386.586 216.808C386.706 216.916 386.766 217.048 386.766 217.204C386.766 217.36 386.706 217.492 386.586 217.6C386.478 217.696 386.346 217.744 386.19 217.744H381.132ZM381.132 220.588C380.976 220.588 380.844 220.54 380.736 220.444C380.628 220.336 380.574 220.204 380.574 220.048C380.574 219.892 380.628 219.76 380.736 219.652C380.844 219.544 380.976 219.49 381.132 219.49H386.19C386.346 219.49 386.478 219.544 386.586 219.652C386.706 219.76 386.766 219.892 386.766 220.048C386.766 220.204 386.706 220.336 386.586 220.444C386.478 220.54 386.346 220.588 386.19 220.588H381.132ZM392.362 223.108C391.738 223.108 391.174 222.994 390.67 222.766C390.166 222.526 389.758 222.256 389.446 221.956C389.134 221.644 388.924 221.368 388.816 221.128C388.768 221.068 388.744 220.978 388.744 220.858C388.744 220.702 388.798 220.57 388.906 220.462C389.026 220.354 389.164 220.3 389.32 220.3C389.44 220.3 389.53 220.324 389.59 220.372C389.662 220.408 389.734 220.48 389.806 220.588C390.166 221.044 390.544 221.392 390.94 221.632C391.336 221.86 391.81 221.974 392.362 221.974C392.878 221.974 393.364 221.818 393.82 221.506C394.288 221.182 394.66 220.756 394.936 220.228C395.212 219.688 395.35 219.112 395.35 218.5C395.35 217.672 395.122 216.964 394.666 216.376C394.222 215.776 393.574 215.476 392.722 215.476C392.134 215.476 391.642 215.59 391.246 215.818C390.862 216.046 390.52 216.31 390.22 216.61C390.088 216.742 389.944 216.808 389.788 216.808C389.608 216.808 389.458 216.748 389.338 216.628C389.23 216.496 389.188 216.34 389.212 216.16L389.68 211.498C389.692 211.354 389.758 211.234 389.878 211.138C389.998 211.042 390.124 210.994 390.256 210.994H395.404C395.56 210.994 395.692 211.048 395.8 211.156C395.92 211.264 395.98 211.396 395.98 211.552C395.98 211.708 395.92 211.84 395.8 211.948C395.692 212.056 395.56 212.11 395.404 212.11H390.76L390.472 214.972C391.216 214.564 391.966 214.36 392.722 214.36C393.43 214.36 394.066 214.534 394.63 214.882C395.206 215.23 395.656 215.716 395.98 216.34C396.304 216.964 396.466 217.684 396.466 218.5C396.466 219.328 396.274 220.096 395.89 220.804C395.506 221.512 394.996 222.076 394.36 222.496C393.736 222.904 393.07 223.108 392.362 223.108ZM399.67 216.754C399.478 216.754 399.322 216.688 399.202 216.556C399.094 216.412 399.04 216.232 399.04 216.016C399.04 215.8 399.118 215.602 399.274 215.422C399.43 215.242 399.61 215.152 399.814 215.152C399.994 215.152 400.144 215.218 400.264 215.35C400.384 215.482 400.444 215.65 400.444 215.854C400.444 216.106 400.366 216.322 400.21 216.502C400.054 216.67 399.874 216.754 399.67 216.754ZM398.626 224.764C398.494 224.764 398.38 224.716 398.284 224.62C398.188 224.536 398.14 224.428 398.14 224.296C398.14 224.248 398.152 224.188 398.176 224.116L398.59 223.018C398.458 222.838 398.392 222.658 398.392 222.478C398.392 222.25 398.47 222.052 398.626 221.884C398.782 221.704 398.962 221.614 399.166 221.614C399.346 221.614 399.496 221.68 399.616 221.812C399.748 221.944 399.814 222.088 399.814 222.244C399.814 222.4 399.784 222.556 399.724 222.712C399.676 222.868 399.574 223.138 399.418 223.522L399.256 223.918C399.124 224.266 399.022 224.494 398.95 224.602C398.878 224.71 398.77 224.764 398.626 224.764ZM317.015 247.564C316.859 247.564 316.721 247.504 316.601 247.384C316.493 247.276 316.439 247.15 316.439 247.006V235.684C316.439 235.516 316.493 235.378 316.601 235.27C316.721 235.162 316.859 235.108 317.015 235.108C317.171 235.108 317.303 235.168 317.411 235.288C317.519 235.396 317.573 235.528 317.573 235.684V236.422C318.305 235.546 319.397 235.108 320.849 235.108C321.449 235.108 321.971 235.3 322.415 235.684C322.859 236.068 323.195 236.566 323.423 237.178C323.651 237.79 323.765 238.444 323.765 239.14C323.765 240.424 323.465 241.552 322.865 242.524C322.265 243.484 321.245 243.964 319.805 243.964C319.121 243.964 318.377 243.796 317.573 243.46V247.006C317.573 247.15 317.513 247.276 317.393 247.384C317.285 247.504 317.159 247.564 317.015 247.564ZM319.913 242.83C320.897 242.83 321.611 242.506 322.055 241.858C322.511 241.198 322.739 240.292 322.739 239.14C322.739 238.684 322.673 238.228 322.541 237.772C322.409 237.304 322.187 236.914 321.875 236.602C321.575 236.278 321.185 236.116 320.705 236.116C319.913 236.116 319.253 236.284 318.725 236.62C318.197 236.944 317.813 237.28 317.573 237.628V242.254C318.425 242.638 319.205 242.83 319.913 242.83ZM326.578 244.108C326.434 244.108 326.302 244.054 326.182 243.946C326.062 243.838 326.002 243.718 326.002 243.586V235.666C326.002 235.51 326.056 235.384 326.164 235.288C326.284 235.18 326.422 235.126 326.578 235.126C326.746 235.126 326.884 235.18 326.992 235.288C327.1 235.384 327.154 235.51 327.154 235.666V237.196C327.49 236.608 327.904 236.11 328.396 235.702C328.9 235.282 329.488 235.072 330.16 235.072C330.688 235.072 331.066 235.222 331.294 235.522C331.534 235.81 331.654 236.158 331.654 236.566V237.142C331.654 237.298 331.6 237.43 331.492 237.538C331.384 237.634 331.252 237.682 331.096 237.682C330.916 237.682 330.784 237.628 330.7 237.52C330.616 237.412 330.574 237.28 330.574 237.124V236.71C330.574 236.362 330.37 236.188 329.962 236.188C329.254 236.188 328.522 236.692 327.766 237.7C327.586 237.94 327.436 238.24 327.316 238.6C327.208 238.96 327.154 239.296 327.154 239.608L327.136 243.586C327.136 243.718 327.076 243.838 326.956 243.946C326.848 244.054 326.722 244.108 326.578 244.108ZM333.858 233.704C333.702 233.704 333.57 233.65 333.462 233.542C333.354 233.434 333.3 233.302 333.3 233.146L333.318 232.408C333.318 232.264 333.378 232.138 333.498 232.03C333.618 231.922 333.75 231.868 333.894 231.868C334.038 231.868 334.164 231.928 334.272 232.048C334.38 232.156 334.434 232.282 334.434 232.426L334.416 233.164C334.416 233.32 334.356 233.452 334.236 233.56C334.128 233.656 334.002 233.704 333.858 233.704ZM333.75 244.108C333.594 244.108 333.456 244.054 333.336 243.946C333.216 243.826 333.156 243.688 333.156 243.532L333.264 235.72C333.264 235.564 333.324 235.426 333.444 235.306C333.564 235.186 333.702 235.126 333.858 235.126C334.014 235.126 334.146 235.186 334.254 235.306C334.374 235.414 334.434 235.552 334.434 235.72L334.326 243.532C334.326 243.688 334.266 243.826 334.146 243.946C334.038 244.054 333.906 244.108 333.75 244.108ZM337.81 244.108C337.654 244.108 337.516 244.054 337.396 243.946C337.288 243.838 337.234 243.718 337.234 243.586V235.648C337.234 235.492 337.288 235.366 337.396 235.27C337.516 235.162 337.654 235.108 337.81 235.108C337.966 235.108 338.098 235.162 338.206 235.27C338.314 235.366 338.368 235.492 338.368 235.648V238.492C338.716 237.412 339.196 236.584 339.808 236.008C340.432 235.42 341.134 235.126 341.914 235.126C342.574 235.126 343.096 235.294 343.48 235.63C343.864 235.966 344.14 236.5 344.308 237.232C344.476 237.952 344.56 238.924 344.56 240.148C344.56 241.348 344.554 242.134 344.542 242.506V243.532C344.542 243.688 344.488 243.826 344.38 243.946C344.284 244.054 344.158 244.108 344.002 244.108C343.858 244.108 343.732 244.054 343.624 243.946C343.516 243.826 343.462 243.694 343.462 243.55V242.542C343.45 242.17 343.444 241.396 343.444 240.22C343.444 239.104 343.384 238.258 343.264 237.682C343.156 237.106 342.982 236.716 342.742 236.512C342.514 236.296 342.184 236.188 341.752 236.188C341.344 236.188 340.942 236.338 340.546 236.638C340.15 236.938 339.802 237.364 339.502 237.916C339.106 238.636 338.818 239.314 338.638 239.95C338.47 240.586 338.38 241.24 338.368 241.912L338.35 243.514C338.35 243.682 338.296 243.826 338.188 243.946C338.092 244.054 337.966 244.108 337.81 244.108ZM348.209 244.126C348.053 244.126 347.915 244.072 347.795 243.964C347.687 243.856 347.633 243.73 347.633 243.586V236.242H345.635C345.479 236.242 345.347 236.188 345.239 236.08C345.131 235.96 345.077 235.822 345.077 235.666C345.077 235.498 345.137 235.366 345.257 235.27C345.377 235.162 345.515 235.108 345.671 235.108H347.633V232.642C347.633 232.486 347.687 232.354 347.795 232.246C347.915 232.126 348.053 232.066 348.209 232.066C348.377 232.066 348.509 232.126 348.605 232.246C348.713 232.354 348.767 232.486 348.767 232.642V235.108H350.783C350.951 235.108 351.089 235.162 351.197 235.27C351.305 235.378 351.359 235.51 351.359 235.666C351.359 235.822 351.299 235.96 351.179 236.08C351.071 236.188 350.939 236.242 350.783 236.242H348.767V243.586C348.767 243.73 348.707 243.856 348.587 243.964C348.479 244.072 348.353 244.126 348.209 244.126ZM353.054 244.108C352.898 244.108 352.76 244.054 352.64 243.946C352.532 243.838 352.478 243.718 352.478 243.586V236.152H351.218C351.086 236.152 350.966 236.098 350.858 235.99C350.75 235.882 350.696 235.756 350.696 235.612C350.696 235.48 350.75 235.36 350.858 235.252C350.954 235.144 351.062 235.09 351.182 235.09H352.496C352.496 234.25 352.622 233.584 352.874 233.092C353.126 232.6 353.51 232.252 354.026 232.048C354.554 231.832 355.25 231.724 356.114 231.724C356.618 231.724 356.87 231.898 356.87 232.246C356.87 232.402 356.822 232.534 356.726 232.642C356.63 232.75 356.498 232.804 356.33 232.804C355.586 232.804 355.028 232.858 354.656 232.966C354.296 233.074 354.032 233.29 353.864 233.614C353.708 233.926 353.624 234.418 353.612 235.09L355.988 235.108C356.108 235.108 356.222 235.162 356.33 235.27C356.45 235.366 356.51 235.48 356.51 235.612C356.51 235.756 356.456 235.882 356.348 235.99C356.252 236.098 356.132 236.152 355.988 236.152H353.612V243.586C353.612 243.718 353.552 243.838 353.432 243.946C353.324 244.054 353.198 244.108 353.054 244.108ZM360.619 246.016C360.415 246.016 360.247 245.938 360.115 245.782C358.063 243.334 357.037 240.676 357.037 237.808C357.037 236.332 357.337 234.922 357.937 233.578C358.537 232.234 359.353 231.076 360.385 230.104C360.577 229.948 360.733 229.87 360.853 229.87C360.997 229.87 361.123 229.93 361.231 230.05C361.351 230.158 361.411 230.29 361.411 230.446C361.411 230.614 361.345 230.758 361.213 230.878C360.757 231.286 360.295 231.832 359.827 232.516C359.371 233.188 358.981 233.98 358.657 234.892C358.333 235.804 358.171 236.776 358.171 237.808C358.171 239.2 358.429 240.526 358.945 241.786C359.473 243.034 360.151 244.126 360.979 245.062C361.099 245.182 361.159 245.32 361.159 245.476C361.159 245.62 361.099 245.746 360.979 245.854C360.871 245.962 360.751 246.016 360.619 246.016ZM363.584 234.388C363.404 234.388 363.248 234.322 363.116 234.19C362.996 234.058 362.936 233.914 362.936 233.758C362.936 233.59 362.96 233.428 363.008 233.272C363.068 233.116 363.176 232.846 363.332 232.462L363.476 232.102C363.62 231.742 363.728 231.508 363.8 231.4C363.872 231.292 363.98 231.238 364.124 231.238C364.256 231.238 364.37 231.286 364.466 231.382C364.562 231.466 364.61 231.568 364.61 231.688C364.61 231.748 364.592 231.808 364.556 231.868L364.142 232.984C364.286 233.128 364.358 233.308 364.358 233.524C364.358 233.752 364.28 233.956 364.124 234.136C363.968 234.304 363.788 234.388 363.584 234.388ZM366.104 234.28C365.924 234.28 365.768 234.214 365.636 234.082C365.516 233.95 365.456 233.806 365.456 233.65C365.456 233.482 365.48 233.32 365.528 233.164C365.588 233.008 365.696 232.738 365.852 232.354L365.996 231.994C366.14 231.634 366.248 231.4 366.32 231.292C366.392 231.184 366.5 231.13 366.644 231.13C366.776 231.13 366.89 231.178 366.986 231.274C367.082 231.358 367.13 231.46 367.13 231.58C367.13 231.64 367.112 231.7 367.076 231.76L366.662 232.876C366.806 233.02 366.878 233.2 366.878 233.416C366.878 233.644 366.8 233.848 366.644 234.028C366.488 234.196 366.308 234.28 366.104 234.28ZM371.245 236.62C370.801 236.62 370.387 236.512 370.003 236.296C369.631 236.068 369.331 235.768 369.103 235.396C368.887 235.012 368.779 234.598 368.779 234.154C368.779 233.71 368.887 233.296 369.103 232.912C369.331 232.528 369.631 232.228 370.003 232.012C370.387 231.784 370.801 231.67 371.245 231.67C371.689 231.67 372.103 231.784 372.487 232.012C372.871 232.228 373.171 232.528 373.387 232.912C373.615 233.296 373.729 233.71 373.729 234.154C373.729 234.598 373.615 235.012 373.387 235.396C373.171 235.768 372.871 236.068 372.487 236.296C372.103 236.512 371.689 236.62 371.245 236.62ZM371.047 244.108C370.891 244.108 370.765 244.06 370.669 243.964C370.573 243.856 370.525 243.736 370.525 243.604C370.525 243.496 370.555 243.388 370.615 243.28L376.861 232.012C376.969 231.832 377.119 231.742 377.311 231.742C377.455 231.742 377.575 231.796 377.671 231.904C377.779 232.012 377.833 232.132 377.833 232.264C377.833 232.336 377.815 232.42 377.779 232.516L371.497 243.838C371.413 244.018 371.263 244.108 371.047 244.108ZM371.245 235.54C371.629 235.54 371.953 235.408 372.217 235.144C372.493 234.868 372.631 234.538 372.631 234.154C372.631 233.77 372.493 233.446 372.217 233.182C371.953 232.906 371.629 232.768 371.245 232.768C370.861 232.768 370.531 232.906 370.255 233.182C369.991 233.446 369.859 233.77 369.859 234.154C369.859 234.538 369.991 234.868 370.255 235.144C370.531 235.408 370.861 235.54 371.245 235.54ZM377.023 244.252C376.579 244.252 376.165 244.144 375.781 243.928C375.409 243.7 375.109 243.394 374.881 243.01C374.665 242.626 374.557 242.212 374.557 241.768C374.557 241.324 374.665 240.91 374.881 240.526C375.109 240.142 375.409 239.842 375.781 239.626C376.165 239.398 376.579 239.284 377.023 239.284C377.467 239.284 377.881 239.398 378.265 239.626C378.649 239.842 378.949 240.142 379.165 240.526C379.393 240.91 379.507 241.324 379.507 241.768C379.507 242.212 379.393 242.626 379.165 243.01C378.949 243.394 378.649 243.7 378.265 243.928C377.881 244.144 377.467 244.252 377.023 244.252ZM377.023 243.154C377.407 243.154 377.731 243.022 377.995 242.758C378.271 242.482 378.409 242.152 378.409 241.768C378.409 241.384 378.271 241.06 377.995 240.796C377.731 240.52 377.407 240.382 377.023 240.382C376.651 240.382 376.327 240.52 376.051 240.796C375.775 241.06 375.637 241.384 375.637 241.768C375.637 242.152 375.769 242.482 376.033 242.758C376.309 243.022 376.639 243.154 377.023 243.154ZM384.632 244.108C384.044 244.108 383.51 243.946 383.03 243.622C382.562 243.298 382.19 242.83 381.914 242.218C381.638 241.594 381.5 240.868 381.5 240.04C381.5 238.504 381.842 237.304 382.526 236.44C383.21 235.576 384.152 235.144 385.352 235.144C386.156 235.144 386.954 235.354 387.746 235.774L387.836 232.192C387.836 232.036 387.896 231.904 388.016 231.796C388.136 231.676 388.274 231.616 388.43 231.616C388.574 231.616 388.7 231.676 388.808 231.796C388.928 231.916 388.988 232.054 388.988 232.21L388.718 243.568C388.718 243.724 388.658 243.856 388.538 243.964C388.43 244.06 388.298 244.108 388.142 244.108C387.974 244.108 387.836 244.048 387.728 243.928C387.62 243.796 387.572 243.646 387.584 243.478L387.602 242.74C386.666 243.652 385.676 244.108 384.632 244.108ZM384.65 243.046C385.202 243.046 385.706 242.932 386.162 242.704C386.618 242.476 386.972 242.206 387.224 241.894C387.488 241.57 387.626 241.288 387.638 241.048L387.728 236.89C387.464 236.734 387.116 236.584 386.684 236.44C386.264 236.296 385.838 236.224 385.406 236.224C384.482 236.224 383.786 236.554 383.318 237.214C382.85 237.874 382.616 238.798 382.616 239.986C382.616 240.946 382.796 241.696 383.156 242.236C383.528 242.776 384.026 243.046 384.65 243.046ZM391.297 234.388C391.165 234.388 391.051 234.346 390.955 234.262C390.859 234.166 390.811 234.052 390.811 233.92C390.811 233.872 390.829 233.812 390.865 233.74L391.279 232.642C391.135 232.498 391.063 232.318 391.063 232.102C391.063 231.874 391.141 231.676 391.297 231.508C391.453 231.328 391.633 231.238 391.837 231.238C392.017 231.238 392.167 231.304 392.287 231.436C392.419 231.568 392.485 231.712 392.485 231.868C392.485 232.024 392.461 232.18 392.413 232.336C392.365 232.492 392.257 232.768 392.089 233.164L391.927 233.56C391.795 233.896 391.693 234.118 391.621 234.226C391.549 234.334 391.441 234.388 391.297 234.388ZM393.835 234.28C393.703 234.28 393.589 234.238 393.493 234.154C393.397 234.058 393.349 233.944 393.349 233.812C393.349 233.764 393.367 233.704 393.403 233.632L393.817 232.534C393.673 232.39 393.601 232.21 393.601 231.994C393.601 231.766 393.679 231.568 393.835 231.4C393.991 231.22 394.171 231.13 394.375 231.13C394.555 231.13 394.705 231.196 394.825 231.328C394.957 231.46 395.023 231.604 395.023 231.76C395.023 231.916 394.999 232.072 394.951 232.228C394.903 232.384 394.795 232.66 394.627 233.056L394.465 233.452C394.333 233.788 394.231 234.01 394.159 234.118C394.087 234.226 393.979 234.28 393.835 234.28ZM397.132 245.764C397 245.764 396.886 245.716 396.79 245.62C396.694 245.536 396.646 245.428 396.646 245.296C396.646 245.248 396.658 245.188 396.682 245.116L397.096 244.018C396.964 243.838 396.898 243.658 396.898 243.478C396.898 243.25 396.976 243.052 397.132 242.884C397.288 242.704 397.468 242.614 397.672 242.614C397.852 242.614 398.002 242.68 398.122 242.812C398.254 242.944 398.32 243.088 398.32 243.244C398.32 243.4 398.29 243.556 398.23 243.712C398.182 243.868 398.08 244.138 397.924 244.522L397.762 244.918C397.63 245.266 397.528 245.494 397.456 245.602C397.384 245.71 397.276 245.764 397.132 245.764ZM406.367 244.252C406.187 244.252 406.049 244.192 405.953 244.072C405.857 243.964 405.809 243.826 405.809 243.658V243.154C405.485 243.442 405.095 243.676 404.639 243.856C404.183 244.024 403.727 244.108 403.271 244.108C402.623 244.108 402.041 243.946 401.525 243.622C401.009 243.298 400.601 242.842 400.301 242.254C400.013 241.654 399.869 240.976 399.869 240.22C399.869 239.404 400.037 238.606 400.373 237.826C400.721 237.034 401.219 236.386 401.867 235.882C402.527 235.378 403.301 235.126 404.189 235.126C404.741 235.126 405.227 235.198 405.647 235.342C406.067 235.486 406.493 235.66 406.925 235.864V243.658C406.925 243.826 406.871 243.964 406.763 244.072C406.655 244.192 406.523 244.252 406.367 244.252ZM403.271 243.046C403.739 243.046 404.207 242.938 404.675 242.722C405.143 242.494 405.503 242.254 405.755 242.002L405.827 236.548C405.635 236.464 405.383 236.386 405.071 236.314C404.771 236.23 404.489 236.188 404.225 236.188C403.637 236.188 403.097 236.362 402.605 236.71C402.113 237.058 401.723 237.538 401.435 238.15C401.159 238.75 401.021 239.428 401.021 240.184C401.021 241.06 401.231 241.756 401.651 242.272C402.071 242.788 402.611 243.046 403.271 243.046ZM412.318 242.596C412.162 242.596 412.03 242.548 411.922 242.452C411.814 242.344 411.76 242.212 411.76 242.056V240.13H409.834C409.678 240.13 409.546 240.082 409.438 239.986C409.33 239.878 409.276 239.746 409.276 239.59C409.276 239.434 409.33 239.308 409.438 239.212C409.546 239.104 409.678 239.05 409.834 239.05H411.76V237.304C411.76 237.148 411.814 237.022 411.922 236.926C412.03 236.818 412.162 236.764 412.318 236.764C412.474 236.764 412.6 236.818 412.696 236.926C412.804 237.022 412.858 237.148 412.858 237.304V239.05H414.82C414.964 239.05 415.09 239.104 415.198 239.212C415.306 239.308 415.36 239.434 415.36 239.59C415.36 239.746 415.306 239.878 415.198 239.986C415.09 240.082 414.964 240.13 414.82 240.13H412.858V242.056C412.858 242.212 412.804 242.344 412.696 242.452C412.6 242.548 412.474 242.596 412.318 242.596ZM418.282 244.108C418.138 244.108 418.006 244.06 417.886 243.964C417.778 243.856 417.724 243.73 417.724 243.586V232.246C417.724 232.102 417.778 231.982 417.886 231.886C418.006 231.79 418.144 231.742 418.3 231.742C418.444 231.742 418.57 231.79 418.678 231.886C418.786 231.982 418.84 232.102 418.84 232.246V236.656C419.224 236.212 419.692 235.87 420.244 235.63C420.796 235.39 421.372 235.27 421.972 235.27C422.92 235.27 423.682 235.63 424.258 236.35C424.834 237.058 425.122 238.018 425.122 239.23C425.122 240.658 424.792 241.81 424.132 242.686C423.484 243.55 422.506 243.982 421.198 243.982C420.79 243.982 420.37 243.934 419.938 243.838C419.506 243.73 419.134 243.61 418.822 243.478V243.622C418.822 243.742 418.768 243.856 418.66 243.964C418.552 244.06 418.426 244.108 418.282 244.108ZM421.054 242.902C423.046 242.902 424.042 241.678 424.042 239.23C424.042 238.342 423.85 237.652 423.466 237.16C423.094 236.656 422.59 236.404 421.954 236.404C421.378 236.404 420.85 236.512 420.37 236.728C419.902 236.944 419.53 237.238 419.254 237.61C418.978 237.982 418.84 238.39 418.84 238.834V242.452C419.068 242.548 419.386 242.65 419.794 242.758C420.214 242.854 420.634 242.902 421.054 242.902ZM427.537 246.016C427.393 246.016 427.261 245.962 427.141 245.854C427.033 245.746 426.979 245.62 426.979 245.476C426.979 245.308 427.039 245.17 427.159 245.062C427.927 244.246 428.587 243.184 429.139 241.876C429.703 240.568 429.985 239.212 429.985 237.808C429.985 236.404 429.691 235.096 429.103 233.884C428.515 232.672 427.795 231.67 426.943 230.878C426.799 230.734 426.727 230.59 426.727 230.446C426.727 230.29 426.781 230.158 426.889 230.05C427.009 229.93 427.147 229.87 427.303 229.87C427.411 229.87 427.561 229.948 427.753 230.104C428.785 231.076 429.601 232.234 430.201 233.578C430.801 234.922 431.101 236.332 431.101 237.808C431.101 239.368 430.813 240.82 430.237 242.164C429.673 243.508 428.935 244.714 428.023 245.782C427.915 245.938 427.753 246.016 427.537 246.016ZM434.264 237.754C434.072 237.754 433.916 237.688 433.796 237.556C433.688 237.412 433.634 237.232 433.634 237.016C433.634 236.8 433.712 236.602 433.868 236.422C434.024 236.242 434.204 236.152 434.408 236.152C434.588 236.152 434.738 236.218 434.858 236.35C434.978 236.482 435.038 236.65 435.038 236.854C435.038 237.106 434.96 237.322 434.804 237.502C434.648 237.67 434.468 237.754 434.264 237.754ZM433.22 245.764C433.088 245.764 432.974 245.716 432.878 245.62C432.782 245.536 432.734 245.428 432.734 245.296C432.734 245.248 432.746 245.188 432.77 245.116L433.184 244.018C433.052 243.838 432.986 243.658 432.986 243.478C432.986 243.25 433.064 243.052 433.22 242.884C433.376 242.704 433.556 242.614 433.76 242.614C433.94 242.614 434.09 242.68 434.21 242.812C434.342 242.944 434.408 243.088 434.408 243.244C434.408 243.4 434.378 243.556 434.318 243.712C434.27 243.868 434.168 244.138 434.012 244.522L433.85 244.918C433.718 245.266 433.616 245.494 433.544 245.602C433.472 245.71 433.364 245.764 433.22 245.764ZM317.015 265.108C316.871 265.108 316.739 265.054 316.619 264.946C316.499 264.838 316.439 264.718 316.439 264.586V256.666C316.439 256.51 316.493 256.384 316.601 256.288C316.721 256.18 316.859 256.126 317.015 256.126C317.183 256.126 317.321 256.18 317.429 256.288C317.537 256.384 317.591 256.51 317.591 256.666V258.196C317.927 257.608 318.341 257.11 318.833 256.702C319.337 256.282 319.925 256.072 320.597 256.072C321.125 256.072 321.503 256.222 321.731 256.522C321.971 256.81 322.091 257.158 322.091 257.566V258.142C322.091 258.298 322.037 258.43 321.929 258.538C321.821 258.634 321.689 258.682 321.533 258.682C321.353 258.682 321.221 258.628 321.137 258.52C321.053 258.412 321.011 258.28 321.011 258.124V257.71C321.011 257.362 320.807 257.188 320.399 257.188C319.691 257.188 318.959 257.692 318.203 258.7C318.023 258.94 317.873 259.24 317.753 259.6C317.645 259.96 317.591 260.296 317.591 260.608L317.573 264.586C317.573 264.718 317.513 264.838 317.393 264.946C317.285 265.054 317.159 265.108 317.015 265.108ZM327.165 265.108C326.289 265.108 325.509 264.916 324.825 264.532C324.141 264.136 323.613 263.608 323.241 262.948C322.869 262.288 322.683 261.568 322.683 260.788C322.683 259.972 322.851 259.21 323.187 258.502C323.535 257.782 324.015 257.206 324.627 256.774C325.239 256.342 325.941 256.126 326.733 256.126C327.453 256.126 328.065 256.264 328.569 256.54C329.085 256.816 329.469 257.146 329.721 257.53C329.985 257.914 330.117 258.256 330.117 258.556C330.117 258.772 329.973 258.964 329.685 259.132L324.105 262.318C324.405 262.894 324.813 263.332 325.329 263.632C325.845 263.92 326.451 264.064 327.147 264.064C327.531 264.064 327.933 263.968 328.353 263.776C328.785 263.584 329.127 263.356 329.379 263.092C329.463 262.972 329.583 262.912 329.739 262.912C329.895 262.912 330.021 262.966 330.117 263.074C330.225 263.17 330.279 263.296 330.279 263.452C330.279 263.572 330.231 263.692 330.135 263.812C329.811 264.184 329.367 264.496 328.803 264.748C328.251 264.988 327.705 265.108 327.165 265.108ZM329.001 258.412C328.833 258.004 328.569 257.698 328.209 257.494C327.849 257.29 327.363 257.188 326.751 257.188C326.175 257.188 325.659 257.35 325.203 257.674C324.747 257.986 324.387 258.412 324.123 258.952C323.871 259.492 323.739 260.086 323.727 260.734C323.727 260.974 323.739 261.166 323.763 261.31L329.001 258.412ZM333.303 265.126C333.147 265.126 333.009 265.072 332.889 264.964C332.781 264.856 332.727 264.73 332.727 264.586V257.242H330.729C330.573 257.242 330.441 257.188 330.333 257.08C330.225 256.96 330.171 256.822 330.171 256.666C330.171 256.498 330.231 256.366 330.351 256.27C330.471 256.162 330.609 256.108 330.765 256.108H332.727V253.642C332.727 253.486 332.781 253.354 332.889 253.246C333.009 253.126 333.147 253.066 333.303 253.066C333.471 253.066 333.603 253.126 333.699 253.246C333.807 253.354 333.861 253.486 333.861 253.642V256.108H335.877C336.045 256.108 336.183 256.162 336.291 256.27C336.399 256.378 336.453 256.51 336.453 256.666C336.453 256.822 336.393 256.96 336.273 257.08C336.165 257.188 336.033 257.242 335.877 257.242H333.861V264.586C333.861 264.73 333.801 264.856 333.681 264.964C333.573 265.072 333.447 265.126 333.303 265.126ZM339.875 265.162C339.203 265.162 338.669 265.012 338.273 264.712C337.889 264.412 337.607 263.902 337.427 263.182C337.247 262.462 337.157 261.46 337.157 260.176C337.157 258.796 337.229 257.662 337.373 256.774C337.409 256.534 337.469 256.366 337.553 256.27C337.649 256.162 337.781 256.108 337.949 256.108C338.093 256.108 338.213 256.156 338.309 256.252C338.417 256.348 338.471 256.48 338.471 256.648C338.471 256.828 338.453 257.062 338.417 257.35C338.309 258.214 338.255 259.3 338.255 260.608C338.255 261.868 338.381 262.774 338.633 263.326C338.885 263.878 339.305 264.154 339.893 264.154C340.433 264.154 340.973 264.016 341.513 263.74C342.065 263.452 342.455 263.176 342.683 262.912C342.827 262.744 342.899 262.474 342.899 262.102L342.971 256.612C342.971 256.468 343.025 256.348 343.133 256.252C343.241 256.156 343.367 256.108 343.511 256.108C343.655 256.108 343.781 256.156 343.889 256.252C343.997 256.348 344.051 256.468 344.051 256.612V264.55C344.051 264.694 343.991 264.826 343.871 264.946C343.751 265.054 343.613 265.108 343.457 265.108C343.265 265.108 343.109 265.048 342.989 264.928C342.881 264.808 342.827 264.658 342.827 264.478V263.794C342.563 264.142 342.155 264.46 341.603 264.748C341.063 265.024 340.487 265.162 339.875 265.162ZM347.197 265.108C347.053 265.108 346.921 265.054 346.801 264.946C346.681 264.838 346.621 264.718 346.621 264.586V256.666C346.621 256.51 346.675 256.384 346.783 256.288C346.903 256.18 347.041 256.126 347.197 256.126C347.365 256.126 347.503 256.18 347.611 256.288C347.719 256.384 347.773 256.51 347.773 256.666V258.196C348.109 257.608 348.523 257.11 349.015 256.702C349.519 256.282 350.107 256.072 350.779 256.072C351.307 256.072 351.685 256.222 351.913 256.522C352.153 256.81 352.273 257.158 352.273 257.566V258.142C352.273 258.298 352.219 258.43 352.111 258.538C352.003 258.634 351.871 258.682 351.715 258.682C351.535 258.682 351.403 258.628 351.319 258.52C351.235 258.412 351.193 258.28 351.193 258.124V257.71C351.193 257.362 350.989 257.188 350.581 257.188C349.873 257.188 349.141 257.692 348.385 258.7C348.205 258.94 348.055 259.24 347.935 259.6C347.827 259.96 347.773 260.296 347.773 260.608L347.755 264.586C347.755 264.718 347.695 264.838 347.575 264.946C347.467 265.054 347.341 265.108 347.197 265.108ZM354.351 265.108C354.195 265.108 354.057 265.054 353.937 264.946C353.829 264.838 353.775 264.718 353.775 264.586V256.648C353.775 256.492 353.829 256.366 353.937 256.27C354.057 256.162 354.195 256.108 354.351 256.108C354.507 256.108 354.639 256.162 354.747 256.27C354.855 256.366 354.909 256.492 354.909 256.648V259.492C355.257 258.412 355.737 257.584 356.349 257.008C356.973 256.42 357.675 256.126 358.455 256.126C359.115 256.126 359.637 256.294 360.021 256.63C360.405 256.966 360.681 257.5 360.849 258.232C361.017 258.952 361.101 259.924 361.101 261.148C361.101 262.348 361.095 263.134 361.083 263.506V264.532C361.083 264.688 361.029 264.826 360.921 264.946C360.825 265.054 360.699 265.108 360.543 265.108C360.399 265.108 360.273 265.054 360.165 264.946C360.057 264.826 360.003 264.694 360.003 264.55V263.542C359.991 263.17 359.985 262.396 359.985 261.22C359.985 260.104 359.925 259.258 359.805 258.682C359.697 258.106 359.523 257.716 359.283 257.512C359.055 257.296 358.725 257.188 358.293 257.188C357.885 257.188 357.483 257.338 357.087 257.638C356.691 257.938 356.343 258.364 356.043 258.916C355.647 259.636 355.359 260.314 355.179 260.95C355.011 261.586 354.921 262.24 354.909 262.912L354.891 264.514C354.891 264.682 354.837 264.826 354.729 264.946C354.633 265.054 354.507 265.108 354.351 265.108ZM373.624 265.108C372.844 265.108 372.142 264.844 371.518 264.316C370.894 263.776 370.402 263.056 370.042 262.156C369.694 261.256 369.52 260.29 369.52 259.258C369.52 258.13 369.718 257.068 370.114 256.072C370.522 255.076 371.068 254.278 371.752 253.678C372.448 253.078 373.204 252.778 374.02 252.778C374.788 252.778 375.484 253.048 376.108 253.588C376.732 254.116 377.218 254.83 377.566 255.73C377.926 256.63 378.106 257.602 378.106 258.646C378.106 259.786 377.902 260.854 377.494 261.85C377.098 262.834 376.552 263.626 375.856 264.226C375.172 264.814 374.428 265.108 373.624 265.108ZM373.624 263.992C374.212 263.992 374.764 263.752 375.28 263.272C375.808 262.792 376.228 262.144 376.54 261.328C376.864 260.512 377.026 259.63 377.026 258.682C377.026 257.842 376.894 257.056 376.63 256.324C376.366 255.592 376.006 255.004 375.55 254.56C375.094 254.116 374.584 253.894 374.02 253.894C373.42 253.894 372.856 254.134 372.328 254.614C371.812 255.094 371.398 255.748 371.086 256.576C370.774 257.392 370.618 258.274 370.618 259.222C370.618 260.05 370.744 260.83 370.996 261.562C371.26 262.294 371.62 262.882 372.076 263.326C372.532 263.77 373.048 263.992 373.624 263.992ZM381.389 258.754C381.197 258.754 381.041 258.688 380.921 258.556C380.813 258.412 380.759 258.232 380.759 258.016C380.759 257.8 380.837 257.602 380.993 257.422C381.149 257.242 381.329 257.152 381.533 257.152C381.713 257.152 381.863 257.218 381.983 257.35C382.103 257.482 382.163 257.65 382.163 257.854C382.163 258.106 382.085 258.322 381.929 258.502C381.773 258.67 381.593 258.754 381.389 258.754ZM380.345 266.764C380.213 266.764 380.099 266.716 380.003 266.62C379.907 266.536 379.859 266.428 379.859 266.296C379.859 266.248 379.871 266.188 379.895 266.116L380.309 265.018C380.177 264.838 380.111 264.658 380.111 264.478C380.111 264.25 380.189 264.052 380.345 263.884C380.501 263.704 380.681 263.614 380.885 263.614C381.065 263.614 381.215 263.68 381.335 263.812C381.467 263.944 381.533 264.088 381.533 264.244C381.533 264.4 381.503 264.556 381.443 264.712C381.395 264.868 381.293 265.138 381.137 265.522L380.975 265.918C380.843 266.266 380.741 266.494 380.669 266.602C380.597 266.71 380.489 266.764 380.345 266.764ZM298.404 288.304C298.26 288.304 298.134 288.25 298.026 288.142C297.918 288.034 297.864 287.908 297.864 287.764C297.864 287.464 298.038 287.278 298.386 287.206C298.806 287.146 299.184 286.99 299.52 286.738C299.868 286.498 300.042 286.132 300.042 285.64V282.31C300.042 281.398 300.378 280.666 301.05 280.114C300.738 279.874 300.492 279.568 300.312 279.196C300.132 278.824 300.042 278.398 300.042 277.918V274.3C300.042 273.916 299.904 273.592 299.628 273.328C299.352 273.052 298.938 272.854 298.386 272.734C298.23 272.71 298.104 272.65 298.008 272.554C297.912 272.458 297.864 272.338 297.864 272.194C297.864 272.038 297.918 271.912 298.026 271.816C298.146 271.708 298.29 271.654 298.458 271.654C298.686 271.654 299.01 271.738 299.43 271.906C299.85 272.074 300.234 272.356 300.582 272.752C300.942 273.148 301.122 273.664 301.122 274.3V277.936C301.122 278.344 301.23 278.698 301.446 278.998C301.662 279.286 301.938 279.49 302.274 279.61C302.514 279.706 302.634 279.874 302.634 280.114C302.634 280.258 302.61 280.36 302.562 280.42C302.514 280.48 302.424 280.54 302.292 280.6C301.848 280.828 301.542 281.074 301.374 281.338C301.206 281.602 301.122 281.92 301.122 282.292V285.64C301.122 286.288 300.942 286.81 300.582 287.206C300.234 287.602 299.844 287.884 299.412 288.052C298.98 288.22 298.644 288.304 298.404 288.304Z" fill="white"/>
<path d="M2.49998 199.5C1.29998 205.5 1.99998 310.667 2.49998 362.5H295" stroke="#CCCCCC" stroke-width="3"/>
</svg>
